<?xml version="1.0" standalone="no"?>
 <!DOCTYPE svg PUBLIC "-//W3C//DTD SVG 1.1//EN" 
 "http://www.w3.org/Graphics/SVG/1.1/DTD/svg11.dtd"> 
<svg xmlns="http://www.w3.org/2000/svg" version="1.1" 
    width="4.2291cm" height="2.42824cm" viewBox="0 0 16650 9560 ">
<title>SVG Picture created as HVPS_SMD-F.Paste.svg date 2017/11/09 19:49:47 </title>
  <desc>Picture generated by PCBNEW </desc>
<g style="fill:#000000; fill-opacity:1;stroke:#000000; stroke-opacity:1;
stroke-linecap:round; stroke-linejoin:round; "
 transform="translate(0 0) scale(1 1)">
</g>
<g style="fill:#C2C200; fill-opacity:0.0; 
stroke:#C2C200; stroke-width:-0.000393701; stroke-opacity:1; 
stroke-linecap:round; stroke-linejoin:round;">
</g>
<g style="fill:#C2C200; fill-opacity:0.0; 
stroke:#C2C200; stroke-width:50; stroke-opacity:1; 
stroke-linecap:round; stroke-linejoin:round;">
<path d="M15193 25
L693 25
" />
<path d="M15193 9025
L15193 25
" />
<path d="M693 9025
L15193 9025
" />
<path d="M693 25
L693 9025
" />
</g>
<g style="fill:#840000; fill-opacity:0.0; 
stroke:#840000; stroke-width:50; stroke-opacity:1; 
stroke-linecap:round; stroke-linejoin:round;">
</g>
<g style="fill:#840000; fill-opacity:0.0; 
stroke:#840000; stroke-width:0; stroke-opacity:1; 
stroke-linecap:round; stroke-linejoin:round;">
</g>
<g style="fill:#840000; fill-opacity:1.0; 
stroke:#840000; stroke-width:0; stroke-opacity:1; 
stroke-linecap:round; stroke-linejoin:round;">
<polyline style="fill-rule:evenodd;"
points="12366,6712
13319,6712
13319,7075
12366,7075
12366,6712
" /> 
<polyline style="fill-rule:evenodd;"
points="12366,7893
13319,7893
13319,8256
12366,8256
12366,7893
" /> 
<polyline style="fill-rule:evenodd;"
points="4889,6443
4889,6706
4605,6706
4605,6443
4889,6443
" /> 
<polyline style="fill-rule:evenodd;"
points="5480,6443
5480,6706
5196,6706
5196,6443
5480,6443
" /> 
<polyline style="fill-rule:evenodd;"
points="3816,753
4769,753
4769,1115
3816,1115
3816,753
" /> 
<polyline style="fill-rule:evenodd;"
points="3816,1934
4769,1934
4769,2296
3816,2296
3816,1934
" /> 
<polyline style="fill-rule:evenodd;"
points="4174,6621
3911,6621
3911,6337
4174,6337
4174,6621
" /> 
<polyline style="fill-rule:evenodd;"
points="4174,7212
3911,7212
3911,6928
4174,6928
4174,7212
" /> 
<polyline style="fill-rule:evenodd;"
points="8174,3721
7911,3721
7911,3437
8174,3437
8174,3721
" /> 
<polyline style="fill-rule:evenodd;"
points="8174,4312
7911,4312
7911,4028
8174,4028
8174,4312
" /> 
<polyline style="fill-rule:evenodd;"
points="7822,615
7822,1134
7383,1134
7383,615
7822,615
" /> 
<polyline style="fill-rule:evenodd;"
points="6163,1134
6163,615
6602,615
6602,1134
6163,1134
" /> 
<circle cx="1193" cy="2025" r="354.252" /> 
</g>
<g style="fill:#840000; fill-opacity:1.0; 
stroke:#840000; stroke-width:39.3701; stroke-opacity:1; 
stroke-linecap:round; stroke-linejoin:round;">
</g>
<g style="fill:#840000; fill-opacity:1.0; 
stroke:#840000; stroke-width:0; stroke-opacity:1; 
stroke-linecap:round; stroke-linejoin:round;">
<circle cx="1193" cy="1025" r="354.252" /> 
</g>
<g style="fill:#840000; fill-opacity:1.0; 
stroke:#840000; stroke-width:39.3701; stroke-opacity:1; 
stroke-linecap:round; stroke-linejoin:round;">
</g>
<g style="fill:#840000; fill-opacity:1.0; 
stroke:#840000; stroke-width:0; stroke-opacity:1; 
stroke-linecap:round; stroke-linejoin:round;">
<polyline style="fill-rule:evenodd;"
points="2552,828
3033,828
3033,1073
2552,1073
2552,828
" /> 
<polyline style="fill-rule:evenodd;"
points="2552,1576
3033,1576
3033,1821
2552,1821
2552,1576
" /> 
<polyline style="fill-rule:evenodd;"
points="2552,2078
3033,2078
3033,2323
2552,2323
2552,2078
" /> 
<polyline style="fill-rule:evenodd;"
points="2552,2826
3033,2826
3033,3071
2552,3071
2552,2826
" /> 
<polyline style="fill-rule:evenodd;"
points="2920,8113
2920,8436
2755,8436
2755,8113
2920,8113
" /> 
<polyline style="fill-rule:evenodd;"
points="2330,8113
2330,8436
2165,8436
2165,8113
2330,8113
" /> 
<polyline style="fill-rule:evenodd;"
points="2215,4086
2215,3763
2380,3763
2380,4086
2215,4086
" /> 
<polyline style="fill-rule:evenodd;"
points="2805,4086
2805,3763
2970,3763
2970,4086
2805,4086
" /> 
<polyline style="fill-rule:evenodd;"
points="3052,6228
3533,6228
3533,6473
3052,6473
3052,6228
" /> 
<polyline style="fill-rule:evenodd;"
points="3052,6976
3533,6976
3533,7221
3052,7221
3052,6976
" /> 
<polyline style="fill-rule:evenodd;"
points="3496,4415
3496,3934
3741,3934
3741,4415
3496,4415
" /> 
<polyline style="fill-rule:evenodd;"
points="4244,4415
4244,3934
4489,3934
4489,4415
4244,4415
" /> 
<polyline style="fill-rule:evenodd;"
points="5538,4798
5538,5751
5176,5751
5176,4798
5538,4798
" /> 
<polyline style="fill-rule:evenodd;"
points="3609,4798
3609,5751
3247,5751
3247,4798
3609,4798
" /> 
<polyline style="fill-rule:evenodd;"
points="8361,3157
7724,3157
7724,2834
8361,2834
8361,3157
" /> 
<polyline style="fill-rule:evenodd;"
points="8361,2015
7724,2015
7724,1692
8361,1692
8361,2015
" /> 
<polyline style="fill-rule:evenodd;"
points="8664,727
9517,727
9517,1286
8664,1286
8664,727
" /> 
<polyline style="fill-rule:evenodd;"
points="8664,1514
9517,1514
9517,2073
8664,2073
8664,1514
" /> 
<polyline style="fill-rule:evenodd;"
points="8664,2302
9517,2302
9517,2861
8664,2861
8664,2302
" /> 
<polyline style="fill-rule:evenodd;"
points="8664,3088
9517,3088
9517,3647
8664,3647
8664,3088
" /> 
<polyline style="fill-rule:evenodd;"
points="8664,3876
9517,3876
9517,4435
8664,4435
8664,3876
" /> 
<polyline style="fill-rule:evenodd;"
points="8664,4663
9517,4663
9517,5222
8664,5222
8664,4663
" /> 
<polyline style="fill-rule:evenodd;"
points="13368,4663
14221,4663
14221,5222
13368,5222
13368,4663
" /> 
<polyline style="fill-rule:evenodd;"
points="13368,3876
14221,3876
14221,4435
13368,4435
13368,3876
" /> 
<polyline style="fill-rule:evenodd;"
points="13368,3088
14221,3088
14221,3647
13368,3647
13368,3088
" /> 
<polyline style="fill-rule:evenodd;"
points="13368,2302
14221,2302
14221,2861
13368,2861
13368,2302
" /> 
<polyline style="fill-rule:evenodd;"
points="13368,1514
14221,1514
14221,2073
13368,2073
13368,1514
" /> 
<polyline style="fill-rule:evenodd;"
points="13368,727
14221,727
14221,1286
13368,1286
13368,727
" /> 
<circle cx="1193" cy="4025" r="354.252" /> 
</g>
<g style="fill:#840000; fill-opacity:1.0; 
stroke:#840000; stroke-width:39.3701; stroke-opacity:1; 
stroke-linecap:round; stroke-linejoin:round;">
</g>
<g style="fill:#840000; fill-opacity:1.0; 
stroke:#840000; stroke-width:0; stroke-opacity:1; 
stroke-linecap:round; stroke-linejoin:round;">
<circle cx="1193" cy="5025" r="354.252" /> 
</g>
<g style="fill:#840000; fill-opacity:1.0; 
stroke:#840000; stroke-width:39.3701; stroke-opacity:1; 
stroke-linecap:round; stroke-linejoin:round;">
</g>
<g style="fill:#840000; fill-opacity:1.0; 
stroke:#840000; stroke-width:0; stroke-opacity:1; 
stroke-linecap:round; stroke-linejoin:round;">
<circle cx="14193" cy="8025" r="354.252" /> 
</g>
<g style="fill:#840000; fill-opacity:1.0; 
stroke:#840000; stroke-width:39.3701; stroke-opacity:1; 
stroke-linecap:round; stroke-linejoin:round;">
</g>
<g style="fill:#840000; fill-opacity:1.0; 
stroke:#840000; stroke-width:0; stroke-opacity:1; 
stroke-linecap:round; stroke-linejoin:round;">
<circle cx="14193" cy="7025" r="354.252" /> 
</g>
<g style="fill:#840000; fill-opacity:1.0; 
stroke:#840000; stroke-width:39.3701; stroke-opacity:1; 
stroke-linecap:round; stroke-linejoin:round;">
</g>
<g style="fill:#840000; fill-opacity:1.0; 
stroke:#840000; stroke-width:0; stroke-opacity:1; 
stroke-linecap:round; stroke-linejoin:round;">
<polyline style="fill-rule:evenodd;"
points="5940,7515
5940,6680
6145,6680
6145,7515
5940,7515
" /> 
<polyline style="fill-rule:evenodd;"
points="6440,7515
6440,6680
6645,6680
6645,7515
6440,7515
" /> 
<polyline style="fill-rule:evenodd;"
points="6940,7515
6940,6680
7145,6680
7145,7515
6940,7515
" /> 
<polyline style="fill-rule:evenodd;"
points="7440,7515
7440,6680
7645,6680
7645,7515
7440,7515
" /> 
<polyline style="fill-rule:evenodd;"
points="7440,5469
7440,4634
7645,4634
7645,5469
7440,5469
" /> 
<polyline style="fill-rule:evenodd;"
points="6940,5469
6940,4634
7145,4634
7145,5469
6940,5469
" /> 
<polyline style="fill-rule:evenodd;"
points="6440,5469
6440,4634
6645,4634
6645,5469
6440,5469
" /> 
<polyline style="fill-rule:evenodd;"
points="5940,5469
5940,4634
6145,4634
6145,5469
5940,5469
" /> 
<polyline style="fill-rule:evenodd;"
points="5440,4295
5440,3854
5645,3854
5645,4295
5440,4295
" /> 
<polyline style="fill-rule:evenodd;"
points="5940,4295
5940,3854
6145,3854
6145,4295
5940,4295
" /> 
<polyline style="fill-rule:evenodd;"
points="6440,4295
6440,3854
6645,3854
6645,4295
6440,4295
" /> 
<polyline style="fill-rule:evenodd;"
points="6940,4295
6940,3854
7145,3854
7145,4295
6940,4295
" /> 
<polyline style="fill-rule:evenodd;"
points="6940,2091
6940,1650
7145,1650
7145,2091
6940,2091
" /> 
<polyline style="fill-rule:evenodd;"
points="6440,2091
6440,1650
6645,1650
6645,2091
6440,2091
" /> 
<polyline style="fill-rule:evenodd;"
points="5940,2091
5940,1650
6145,1650
6145,2091
5940,2091
" /> 
<polyline style="fill-rule:evenodd;"
points="5440,2091
5440,1650
5645,1650
5645,2091
5440,2091
" /> 
</g> 
</svg>
