<?xml version="1.0" standalone="no"?>
 <!DOCTYPE svg PUBLIC "-//W3C//DTD SVG 1.1//EN" 
 "http://www.w3.org/Graphics/SVG/1.1/DTD/svg11.dtd"> 
<svg xmlns="http://www.w3.org/2000/svg" version="1.1" 
    width="4.2291cm" height="2.42824cm" viewBox="0 0 16650 9560 ">
<title>SVG Picture created as HVPS_SMD-F.Mask.svg date 2017/11/09 19:49:47 </title>
  <desc>Picture generated by PCBNEW </desc>
<g style="fill:#000000; fill-opacity:1;stroke:#000000; stroke-opacity:1;
stroke-linecap:round; stroke-linejoin:round; "
 transform="translate(0 0) scale(1 1)">
</g>
<g style="fill:#C2C200; fill-opacity:0.0; 
stroke:#C2C200; stroke-width:-0.000393701; stroke-opacity:1; 
stroke-linecap:round; stroke-linejoin:round;">
</g>
<g style="fill:#C2C200; fill-opacity:0.0; 
stroke:#C2C200; stroke-width:50; stroke-opacity:1; 
stroke-linecap:round; stroke-linejoin:round;">
<path d="M15193 25
L693 25
" />
<path d="M15193 9025
L15193 25
" />
<path d="M693 9025
L15193 9025
" />
<path d="M693 25
L693 9025
" />
</g>
<g style="fill:#840000; fill-opacity:0.0; 
stroke:#840000; stroke-width:50; stroke-opacity:1; 
stroke-linecap:round; stroke-linejoin:round;">
</g>
<g style="fill:#840000; fill-opacity:0.0; 
stroke:#840000; stroke-width:0; stroke-opacity:1; 
stroke-linecap:round; stroke-linejoin:round;">
</g>
<g style="fill:#840000; fill-opacity:1.0; 
stroke:#840000; stroke-width:0; stroke-opacity:1; 
stroke-linecap:round; stroke-linejoin:round;">
<polyline style="fill-rule:evenodd;"
points="12331,6677
13354,6677
13354,7110
12331,7110
12331,6677
" /> 
<polyline style="fill-rule:evenodd;"
points="12331,7858
13354,7858
13354,8291
12331,8291
12331,7858
" /> 
<polyline style="fill-rule:evenodd;"
points="4924,6407
4924,6742
4570,6742
4570,6407
4924,6407
" /> 
<polyline style="fill-rule:evenodd;"
points="5515,6407
5515,6742
5161,6742
5161,6407
5515,6407
" /> 
<polyline style="fill-rule:evenodd;"
points="3781,717
4804,717
4804,1150
3781,1150
3781,717
" /> 
<polyline style="fill-rule:evenodd;"
points="3781,1899
4804,1899
4804,2332
3781,2332
3781,1899
" /> 
<polyline style="fill-rule:evenodd;"
points="4210,6656
3875,6656
3875,6302
4210,6302
4210,6656
" /> 
<polyline style="fill-rule:evenodd;"
points="4210,7247
3875,7247
3875,6893
4210,6893
4210,7247
" /> 
<polyline style="fill-rule:evenodd;"
points="8210,3756
7875,3756
7875,3402
8210,3402
8210,3756
" /> 
<polyline style="fill-rule:evenodd;"
points="8210,4347
7875,4347
7875,3993
8210,3993
8210,4347
" /> 
<polyline style="fill-rule:evenodd;"
points="7857,580
7857,1169
7348,1169
7348,580
7857,580
" /> 
<polyline style="fill-rule:evenodd;"
points="6128,1169
6128,580
6637,580
6637,1169
6128,1169
" /> 
<circle cx="1193" cy="2025" r="389.685" /> 
</g>
<g style="fill:#840000; fill-opacity:1.0; 
stroke:#840000; stroke-width:39.3701; stroke-opacity:1; 
stroke-linecap:round; stroke-linejoin:round;">
</g>
<g style="fill:#840000; fill-opacity:1.0; 
stroke:#840000; stroke-width:0; stroke-opacity:1; 
stroke-linecap:round; stroke-linejoin:round;">
<circle cx="1193" cy="1025" r="389.685" /> 
</g>
<g style="fill:#840000; fill-opacity:1.0; 
stroke:#840000; stroke-width:39.3701; stroke-opacity:1; 
stroke-linecap:round; stroke-linejoin:round;">
</g>
<g style="fill:#840000; fill-opacity:1.0; 
stroke:#840000; stroke-width:0; stroke-opacity:1; 
stroke-linecap:round; stroke-linejoin:round;">
<polyline style="fill-rule:evenodd;"
points="2517,793
3068,793
3068,1108
2517,1108
2517,793
" /> 
<polyline style="fill-rule:evenodd;"
points="2517,1541
3068,1541
3068,1856
2517,1856
2517,1541
" /> 
<polyline style="fill-rule:evenodd;"
points="2517,2043
3068,2043
3068,2358
2517,2358
2517,2043
" /> 
<polyline style="fill-rule:evenodd;"
points="2517,2791
3068,2791
3068,3106
2517,3106
2517,2791
" /> 
<polyline style="fill-rule:evenodd;"
points="2956,8078
2956,8471
2720,8471
2720,8078
2956,8078
" /> 
<polyline style="fill-rule:evenodd;"
points="2365,8078
2365,8471
2129,8471
2129,8078
2365,8078
" /> 
<polyline style="fill-rule:evenodd;"
points="2179,4121
2179,3728
2415,3728
2415,4121
2179,4121
" /> 
<polyline style="fill-rule:evenodd;"
points="2770,4121
2770,3728
3006,3728
3006,4121
2770,4121
" /> 
<polyline style="fill-rule:evenodd;"
points="3017,6193
3568,6193
3568,6508
3017,6508
3017,6193
" /> 
<polyline style="fill-rule:evenodd;"
points="3017,6941
3568,6941
3568,7256
3017,7256
3017,6941
" /> 
<polyline style="fill-rule:evenodd;"
points="3461,4450
3461,3899
3776,3899
3776,4450
3461,4450
" /> 
<polyline style="fill-rule:evenodd;"
points="4209,4450
4209,3899
4524,3899
4524,4450
4209,4450
" /> 
<polyline style="fill-rule:evenodd;"
points="5574,4763
5574,5786
5141,5786
5141,4763
5574,4763
" /> 
<polyline style="fill-rule:evenodd;"
points="3644,4763
3644,5786
3211,5786
3211,4763
3644,4763
" /> 
<polyline style="fill-rule:evenodd;"
points="8397,3192
7688,3192
7688,2799
8397,2799
8397,3192
" /> 
<polyline style="fill-rule:evenodd;"
points="8397,2050
7688,2050
7688,1657
8397,1657
8397,2050
" /> 
<polyline style="fill-rule:evenodd;"
points="8628,692
9553,692
9553,1321
8628,1321
8628,692
" /> 
<polyline style="fill-rule:evenodd;"
points="8628,1479
9553,1479
9553,2108
8628,2108
8628,1479
" /> 
<polyline style="fill-rule:evenodd;"
points="8628,2267
9553,2267
9553,2896
8628,2896
8628,2267
" /> 
<polyline style="fill-rule:evenodd;"
points="8628,3053
9553,3053
9553,3682
8628,3682
8628,3053
" /> 
<polyline style="fill-rule:evenodd;"
points="8628,3841
9553,3841
9553,4470
8628,4470
8628,3841
" /> 
<polyline style="fill-rule:evenodd;"
points="8628,4628
9553,4628
9553,5257
8628,5257
8628,4628
" /> 
<polyline style="fill-rule:evenodd;"
points="13332,4628
14257,4628
14257,5257
13332,5257
13332,4628
" /> 
<polyline style="fill-rule:evenodd;"
points="13332,3841
14257,3841
14257,4470
13332,4470
13332,3841
" /> 
<polyline style="fill-rule:evenodd;"
points="13332,3053
14257,3053
14257,3682
13332,3682
13332,3053
" /> 
<polyline style="fill-rule:evenodd;"
points="13332,2267
14257,2267
14257,2896
13332,2896
13332,2267
" /> 
<polyline style="fill-rule:evenodd;"
points="13332,1479
14257,1479
14257,2108
13332,2108
13332,1479
" /> 
<polyline style="fill-rule:evenodd;"
points="13332,692
14257,692
14257,1321
13332,1321
13332,692
" /> 
<circle cx="1193" cy="4025" r="389.685" /> 
</g>
<g style="fill:#840000; fill-opacity:1.0; 
stroke:#840000; stroke-width:39.3701; stroke-opacity:1; 
stroke-linecap:round; stroke-linejoin:round;">
</g>
<g style="fill:#840000; fill-opacity:1.0; 
stroke:#840000; stroke-width:0; stroke-opacity:1; 
stroke-linecap:round; stroke-linejoin:round;">
<circle cx="1193" cy="5025" r="389.685" /> 
</g>
<g style="fill:#840000; fill-opacity:1.0; 
stroke:#840000; stroke-width:39.3701; stroke-opacity:1; 
stroke-linecap:round; stroke-linejoin:round;">
</g>
<g style="fill:#840000; fill-opacity:1.0; 
stroke:#840000; stroke-width:0; stroke-opacity:1; 
stroke-linecap:round; stroke-linejoin:round;">
<circle cx="14193" cy="8025" r="389.685" /> 
</g>
<g style="fill:#840000; fill-opacity:1.0; 
stroke:#840000; stroke-width:39.3701; stroke-opacity:1; 
stroke-linecap:round; stroke-linejoin:round;">
</g>
<g style="fill:#840000; fill-opacity:1.0; 
stroke:#840000; stroke-width:0; stroke-opacity:1; 
stroke-linecap:round; stroke-linejoin:round;">
<circle cx="14193" cy="7025" r="389.685" /> 
</g>
<g style="fill:#840000; fill-opacity:1.0; 
stroke:#840000; stroke-width:39.3701; stroke-opacity:1; 
stroke-linecap:round; stroke-linejoin:round;">
</g>
<g style="fill:#840000; fill-opacity:1.0; 
stroke:#840000; stroke-width:0; stroke-opacity:1; 
stroke-linecap:round; stroke-linejoin:round;">
<polyline style="fill-rule:evenodd;"
points="5905,7550
5905,6645
6180,6645
6180,7550
5905,7550
" /> 
<polyline style="fill-rule:evenodd;"
points="6405,7550
6405,6645
6680,6645
6680,7550
6405,7550
" /> 
<polyline style="fill-rule:evenodd;"
points="6905,7550
6905,6645
7180,6645
7180,7550
6905,7550
" /> 
<polyline style="fill-rule:evenodd;"
points="7405,7550
7405,6645
7680,6645
7680,7550
7405,7550
" /> 
<polyline style="fill-rule:evenodd;"
points="7405,5504
7405,4599
7680,4599
7680,5504
7405,5504
" /> 
<polyline style="fill-rule:evenodd;"
points="6905,5504
6905,4599
7180,4599
7180,5504
6905,5504
" /> 
<polyline style="fill-rule:evenodd;"
points="6405,5504
6405,4599
6680,4599
6680,5504
6405,5504
" /> 
<polyline style="fill-rule:evenodd;"
points="5905,5504
5905,4599
6180,4599
6180,5504
5905,5504
" /> 
<polyline style="fill-rule:evenodd;"
points="5405,4330
5405,3819
5680,3819
5680,4330
5405,4330
" /> 
<polyline style="fill-rule:evenodd;"
points="5905,4330
5905,3819
6180,3819
6180,4330
5905,4330
" /> 
<polyline style="fill-rule:evenodd;"
points="6405,4330
6405,3819
6680,3819
6680,4330
6405,4330
" /> 
<polyline style="fill-rule:evenodd;"
points="6905,4330
6905,3819
7180,3819
7180,4330
6905,4330
" /> 
<polyline style="fill-rule:evenodd;"
points="6905,2126
6905,1615
7180,1615
7180,2126
6905,2126
" /> 
<polyline style="fill-rule:evenodd;"
points="6405,2126
6405,1615
6680,1615
6680,2126
6405,2126
" /> 
<polyline style="fill-rule:evenodd;"
points="5905,2126
5905,1615
6180,1615
6180,2126
5905,2126
" /> 
<polyline style="fill-rule:evenodd;"
points="5405,2126
5405,1615
5680,1615
5680,2126
5405,2126
" /> 
</g> 
</svg>
