<?xml version="1.0" standalone="no"?>
 <!DOCTYPE svg PUBLIC "-//W3C//DTD SVG 1.1//EN" 
 "http://www.w3.org/Graphics/SVG/1.1/DTD/svg11.dtd"> 
<svg xmlns="http://www.w3.org/2000/svg" version="1.1" 
    width="4.2291cm" height="2.42824cm" viewBox="0 0 16650 9560 ">
<title>SVG Picture created as HVPS_SMD-F.Cu.svg date 2017/11/09 19:49:47 </title>
  <desc>Picture generated by PCBNEW </desc>
<g style="fill:#000000; fill-opacity:1;stroke:#000000; stroke-opacity:1;
stroke-linecap:round; stroke-linejoin:round; "
 transform="translate(0 0) scale(1 1)">
</g>
<g style="fill:#C2C200; fill-opacity:0.0; 
stroke:#C2C200; stroke-width:-0.000393701; stroke-opacity:1; 
stroke-linecap:round; stroke-linejoin:round;">
</g>
<g style="fill:#C2C200; fill-opacity:0.0; 
stroke:#C2C200; stroke-width:50; stroke-opacity:1; 
stroke-linecap:round; stroke-linejoin:round;">
<path d="M15193 25
L693 25
" />
<path d="M15193 9025
L15193 25
" />
<path d="M693 9025
L15193 9025
" />
<path d="M693 25
L693 9025
" />
</g>
<g style="fill:#840000; fill-opacity:0.0; 
stroke:#840000; stroke-width:50; stroke-opacity:1; 
stroke-linecap:round; stroke-linejoin:round;">
</g>
<g style="fill:#840000; fill-opacity:0.0; 
stroke:#840000; stroke-width:0; stroke-opacity:1; 
stroke-linecap:round; stroke-linejoin:round;">
</g>
<g style="fill:#840000; fill-opacity:1.0; 
stroke:#840000; stroke-width:0; stroke-opacity:1; 
stroke-linecap:round; stroke-linejoin:round;">
<polyline style="fill-rule:evenodd;"
points="12350,6697
13335,6697
13335,7090
12350,7090
12350,6697
" /> 
<polyline style="fill-rule:evenodd;"
points="12350,7878
13335,7878
13335,8271
12350,8271
12350,7878
" /> 
<polyline style="fill-rule:evenodd;"
points="4905,6427
4905,6722
4590,6722
4590,6427
4905,6427
" /> 
<polyline style="fill-rule:evenodd;"
points="5495,6427
5495,6722
5180,6722
5180,6427
5495,6427
" /> 
<polyline style="fill-rule:evenodd;"
points="3800,737
4785,737
4785,1131
3800,1131
3800,737
" /> 
<polyline style="fill-rule:evenodd;"
points="3800,1918
4785,1918
4785,2312
3800,2312
3800,1918
" /> 
<polyline style="fill-rule:evenodd;"
points="4190,6637
3895,6637
3895,6322
4190,6322
4190,6637
" /> 
<polyline style="fill-rule:evenodd;"
points="4190,7227
3895,7227
3895,6912
4190,6912
4190,7227
" /> 
<polyline style="fill-rule:evenodd;"
points="8190,3737
7895,3737
7895,3422
8190,3422
8190,3737
" /> 
<polyline style="fill-rule:evenodd;"
points="8190,4327
7895,4327
7895,4012
8190,4012
8190,4327
" /> 
<polyline style="fill-rule:evenodd;"
points="7838,600
7838,1150
7368,1150
7368,600
7838,600
" /> 
<polyline style="fill-rule:evenodd;"
points="6148,1150
6148,600
6618,600
6618,1150
6148,1150
" /> 
<circle cx="1193" cy="2025" r="370" /> 
</g>
<g style="fill:#840000; fill-opacity:1.0; 
stroke:#840000; stroke-width:39.3701; stroke-opacity:1; 
stroke-linecap:round; stroke-linejoin:round;">
</g>
<g style="fill:#840000; fill-opacity:1.0; 
stroke:#840000; stroke-width:0; stroke-opacity:1; 
stroke-linecap:round; stroke-linejoin:round;">
<circle cx="1193" cy="1025" r="370" /> 
</g>
<g style="fill:#840000; fill-opacity:1.0; 
stroke:#840000; stroke-width:39.3701; stroke-opacity:1; 
stroke-linecap:round; stroke-linejoin:round;">
</g>
<g style="fill:#840000; fill-opacity:1.0; 
stroke:#840000; stroke-width:0; stroke-opacity:1; 
stroke-linecap:round; stroke-linejoin:round;">
<polyline style="fill-rule:evenodd;"
points="2537,813
3048,813
3048,1088
2537,1088
2537,813
" /> 
<polyline style="fill-rule:evenodd;"
points="2537,1561
3048,1561
3048,1836
2537,1836
2537,1561
" /> 
<polyline style="fill-rule:evenodd;"
points="2537,2063
3048,2063
3048,2338
2537,2338
2537,2063
" /> 
<polyline style="fill-rule:evenodd;"
points="2537,2811
3048,2811
3048,3086
2537,3086
2537,2811
" /> 
<polyline style="fill-rule:evenodd;"
points="2936,8097
2936,8452
2739,8452
2739,8097
2936,8097
" /> 
<polyline style="fill-rule:evenodd;"
points="2346,8097
2346,8452
2149,8452
2149,8097
2346,8097
" /> 
<polyline style="fill-rule:evenodd;"
points="2199,4102
2199,3747
2396,3747
2396,4102
2199,4102
" /> 
<polyline style="fill-rule:evenodd;"
points="2789,4102
2789,3747
2986,3747
2986,4102
2789,4102
" /> 
<polyline style="fill-rule:evenodd;"
points="3037,6213
3548,6213
3548,6488
3037,6488
3037,6213
" /> 
<polyline style="fill-rule:evenodd;"
points="3037,6961
3548,6961
3548,7236
3037,7236
3037,6961
" /> 
<polyline style="fill-rule:evenodd;"
points="3481,4430
3481,3919
3756,3919
3756,4430
3481,4430
" /> 
<polyline style="fill-rule:evenodd;"
points="4229,4430
4229,3919
4504,3919
4504,4430
4229,4430
" /> 
<polyline style="fill-rule:evenodd;"
points="5554,4782
5554,5767
5160,5767
5160,4782
5554,4782
" /> 
<polyline style="fill-rule:evenodd;"
points="3625,4782
3625,5767
3231,5767
3231,4782
3625,4782
" /> 
<polyline style="fill-rule:evenodd;"
points="8377,3173
7708,3173
7708,2818
8377,2818
8377,3173
" /> 
<polyline style="fill-rule:evenodd;"
points="8377,2031
7708,2031
7708,1676
8377,1676
8377,2031
" /> 
<polyline style="fill-rule:evenodd;"
points="8648,712
9533,712
9533,1302
8648,1302
8648,712
" /> 
<polyline style="fill-rule:evenodd;"
points="8648,1499
9533,1499
9533,2089
8648,2089
8648,1499
" /> 
<polyline style="fill-rule:evenodd;"
points="8648,2287
9533,2287
9533,2877
8648,2877
8648,2287
" /> 
<polyline style="fill-rule:evenodd;"
points="8648,3073
9533,3073
9533,3663
8648,3663
8648,3073
" /> 
<polyline style="fill-rule:evenodd;"
points="8648,3861
9533,3861
9533,4451
8648,4451
8648,3861
" /> 
<polyline style="fill-rule:evenodd;"
points="8648,4648
9533,4648
9533,5238
8648,5238
8648,4648
" /> 
<polyline style="fill-rule:evenodd;"
points="13352,4648
14237,4648
14237,5238
13352,5238
13352,4648
" /> 
<polyline style="fill-rule:evenodd;"
points="13352,3861
14237,3861
14237,4451
13352,4451
13352,3861
" /> 
<polyline style="fill-rule:evenodd;"
points="13352,3073
14237,3073
14237,3663
13352,3663
13352,3073
" /> 
<polyline style="fill-rule:evenodd;"
points="13352,2287
14237,2287
14237,2877
13352,2877
13352,2287
" /> 
<polyline style="fill-rule:evenodd;"
points="13352,1499
14237,1499
14237,2089
13352,2089
13352,1499
" /> 
<polyline style="fill-rule:evenodd;"
points="13352,712
14237,712
14237,1302
13352,1302
13352,712
" /> 
<circle cx="1193" cy="4025" r="370" /> 
</g>
<g style="fill:#840000; fill-opacity:1.0; 
stroke:#840000; stroke-width:39.3701; stroke-opacity:1; 
stroke-linecap:round; stroke-linejoin:round;">
</g>
<g style="fill:#840000; fill-opacity:1.0; 
stroke:#840000; stroke-width:0; stroke-opacity:1; 
stroke-linecap:round; stroke-linejoin:round;">
<circle cx="1193" cy="5025" r="370" /> 
</g>
<g style="fill:#840000; fill-opacity:1.0; 
stroke:#840000; stroke-width:39.3701; stroke-opacity:1; 
stroke-linecap:round; stroke-linejoin:round;">
</g>
<g style="fill:#840000; fill-opacity:1.0; 
stroke:#840000; stroke-width:0; stroke-opacity:1; 
stroke-linecap:round; stroke-linejoin:round;">
<circle cx="14193" cy="8025" r="370" /> 
</g>
<g style="fill:#840000; fill-opacity:1.0; 
stroke:#840000; stroke-width:39.3701; stroke-opacity:1; 
stroke-linecap:round; stroke-linejoin:round;">
</g>
<g style="fill:#840000; fill-opacity:1.0; 
stroke:#840000; stroke-width:0; stroke-opacity:1; 
stroke-linecap:round; stroke-linejoin:round;">
<circle cx="14193" cy="7025" r="370" /> 
</g>
<g style="fill:#840000; fill-opacity:1.0; 
stroke:#840000; stroke-width:39.3701; stroke-opacity:1; 
stroke-linecap:round; stroke-linejoin:round;">
</g>
<g style="fill:#840000; fill-opacity:1.0; 
stroke:#840000; stroke-width:0; stroke-opacity:1; 
stroke-linecap:round; stroke-linejoin:round;">
<polyline style="fill-rule:evenodd;"
points="5925,7531
5925,6665
6161,6665
6161,7531
5925,7531
" /> 
<polyline style="fill-rule:evenodd;"
points="6425,7531
6425,6665
6661,6665
6661,7531
6425,7531
" /> 
<polyline style="fill-rule:evenodd;"
points="6925,7531
6925,6665
7161,6665
7161,7531
6925,7531
" /> 
<polyline style="fill-rule:evenodd;"
points="7425,7531
7425,6665
7661,6665
7661,7531
7425,7531
" /> 
<polyline style="fill-rule:evenodd;"
points="7425,5485
7425,4619
7661,4619
7661,5485
7425,5485
" /> 
<polyline style="fill-rule:evenodd;"
points="6925,5485
6925,4619
7161,4619
7161,5485
6925,5485
" /> 
<polyline style="fill-rule:evenodd;"
points="6425,5485
6425,4619
6661,4619
6661,5485
6425,5485
" /> 
<polyline style="fill-rule:evenodd;"
points="5925,5485
5925,4619
6161,4619
6161,5485
5925,5485
" /> 
<polyline style="fill-rule:evenodd;"
points="5425,4311
5425,3839
5661,3839
5661,4311
5425,4311
" /> 
<polyline style="fill-rule:evenodd;"
points="5925,4311
5925,3839
6161,3839
6161,4311
5925,4311
" /> 
<polyline style="fill-rule:evenodd;"
points="6425,4311
6425,3839
6661,3839
6661,4311
6425,4311
" /> 
<polyline style="fill-rule:evenodd;"
points="6925,4311
6925,3839
7161,3839
7161,4311
6925,4311
" /> 
<polyline style="fill-rule:evenodd;"
points="6925,2107
6925,1635
7161,1635
7161,2107
6925,2107
" /> 
<polyline style="fill-rule:evenodd;"
points="6425,2107
6425,1635
6661,1635
6661,2107
6425,2107
" /> 
<polyline style="fill-rule:evenodd;"
points="5925,2107
5925,1635
6161,1635
6161,2107
5925,2107
" /> 
<polyline style="fill-rule:evenodd;"
points="5425,2107
5425,1635
5661,1635
5661,2107
5425,2107
" /> 
</g>
<g style="fill:#C2C2C2; fill-opacity:1.0; 
stroke:#C2C2C2; stroke-width:0; stroke-opacity:1; 
stroke-linecap:round; stroke-linejoin:round;">
<circle cx="3993" cy="2475" r="135" /> 
</g>
<g style="fill:#C2C2C2; fill-opacity:1.0; 
stroke:#C2C2C2; stroke-width:39.3701; stroke-opacity:1; 
stroke-linecap:round; stroke-linejoin:round;">
</g>
<g style="fill:#C2C2C2; fill-opacity:1.0; 
stroke:#C2C2C2; stroke-width:0; stroke-opacity:1; 
stroke-linecap:round; stroke-linejoin:round;">
<circle cx="4393" cy="2425" r="135" /> 
</g>
<g style="fill:#C2C2C2; fill-opacity:1.0; 
stroke:#C2C2C2; stroke-width:39.3701; stroke-opacity:1; 
stroke-linecap:round; stroke-linejoin:round;">
</g>
<g style="fill:#C2C2C2; fill-opacity:1.0; 
stroke:#C2C2C2; stroke-width:0; stroke-opacity:1; 
stroke-linecap:round; stroke-linejoin:round;">
<circle cx="4743" cy="2425" r="135" /> 
</g>
<g style="fill:#C2C2C2; fill-opacity:1.0; 
stroke:#C2C2C2; stroke-width:39.3701; stroke-opacity:1; 
stroke-linecap:round; stroke-linejoin:round;">
</g>
<g style="fill:#C2C2C2; fill-opacity:1.0; 
stroke:#C2C2C2; stroke-width:0; stroke-opacity:1; 
stroke-linecap:round; stroke-linejoin:round;">
<circle cx="4457.96" cy="6575" r="135" /> 
</g>
<g style="fill:#C2C2C2; fill-opacity:1.0; 
stroke:#C2C2C2; stroke-width:39.3701; stroke-opacity:1; 
stroke-linecap:round; stroke-linejoin:round;">
</g>
<g style="fill:#C2C2C2; fill-opacity:1.0; 
stroke:#C2C2C2; stroke-width:0; stroke-opacity:1; 
stroke-linecap:round; stroke-linejoin:round;">
<circle cx="3293" cy="7425" r="135" /> 
</g>
<g style="fill:#C2C2C2; fill-opacity:1.0; 
stroke:#C2C2C2; stroke-width:39.3701; stroke-opacity:1; 
stroke-linecap:round; stroke-linejoin:round;">
</g>
<g style="fill:#C2C2C2; fill-opacity:1.0; 
stroke:#C2C2C2; stroke-width:0; stroke-opacity:1; 
stroke-linecap:round; stroke-linejoin:round;">
<circle cx="1993" cy="8275" r="135" /> 
</g>
<g style="fill:#C2C2C2; fill-opacity:1.0; 
stroke:#C2C2C2; stroke-width:39.3701; stroke-opacity:1; 
stroke-linecap:round; stroke-linejoin:round;">
</g>
<g style="fill:#C2C2C2; fill-opacity:1.0; 
stroke:#C2C2C2; stroke-width:0; stroke-opacity:1; 
stroke-linecap:round; stroke-linejoin:round;">
<circle cx="7543" cy="7675" r="135" /> 
</g>
<g style="fill:#C2C2C2; fill-opacity:1.0; 
stroke:#C2C2C2; stroke-width:39.3701; stroke-opacity:1; 
stroke-linecap:round; stroke-linejoin:round;">
</g>
<g style="fill:#C2C2C2; fill-opacity:1.0; 
stroke:#C2C2C2; stroke-width:0; stroke-opacity:1; 
stroke-linecap:round; stroke-linejoin:round;">
<circle cx="7543" cy="4375" r="135" /> 
</g>
<g style="fill:#C2C2C2; fill-opacity:1.0; 
stroke:#C2C2C2; stroke-width:39.3701; stroke-opacity:1; 
stroke-linecap:round; stroke-linejoin:round;">
</g>
<g style="fill:#C2C2C2; fill-opacity:1.0; 
stroke:#C2C2C2; stroke-width:0; stroke-opacity:1; 
stroke-linecap:round; stroke-linejoin:round;">
<circle cx="3793" cy="5725" r="135" /> 
</g>
<g style="fill:#C2C2C2; fill-opacity:1.0; 
stroke:#C2C2C2; stroke-width:39.3701; stroke-opacity:1; 
stroke-linecap:round; stroke-linejoin:round;">
</g>
<g style="fill:#C2C2C2; fill-opacity:1.0; 
stroke:#C2C2C2; stroke-width:0; stroke-opacity:1; 
stroke-linecap:round; stroke-linejoin:round;">
<circle cx="3793" cy="5475" r="135" /> 
</g>
<g style="fill:#C2C2C2; fill-opacity:1.0; 
stroke:#C2C2C2; stroke-width:39.3701; stroke-opacity:1; 
stroke-linecap:round; stroke-linejoin:round;">
</g>
<g style="fill:#C2C2C2; fill-opacity:1.0; 
stroke:#C2C2C2; stroke-width:0; stroke-opacity:1; 
stroke-linecap:round; stroke-linejoin:round;">
<circle cx="3793" cy="5175" r="135" /> 
</g>
<g style="fill:#C2C2C2; fill-opacity:1.0; 
stroke:#C2C2C2; stroke-width:39.3701; stroke-opacity:1; 
stroke-linecap:round; stroke-linejoin:round;">
</g>
<g style="fill:#C2C2C2; fill-opacity:1.0; 
stroke:#C2C2C2; stroke-width:0; stroke-opacity:1; 
stroke-linecap:round; stroke-linejoin:round;">
<circle cx="3793" cy="4875" r="135" /> 
</g>
<g style="fill:#C2C2C2; fill-opacity:1.0; 
stroke:#C2C2C2; stroke-width:39.3701; stroke-opacity:1; 
stroke-linecap:round; stroke-linejoin:round;">
</g>
<g style="fill:#C2C2C2; fill-opacity:1.0; 
stroke:#C2C2C2; stroke-width:0; stroke-opacity:1; 
stroke-linecap:round; stroke-linejoin:round;">
<circle cx="13143" cy="4375" r="135" /> 
</g>
<g style="fill:#C2C2C2; fill-opacity:1.0; 
stroke:#C2C2C2; stroke-width:39.3701; stroke-opacity:1; 
stroke-linecap:round; stroke-linejoin:round;">
</g>
<g style="fill:#C2C2C2; fill-opacity:1.0; 
stroke:#C2C2C2; stroke-width:0; stroke-opacity:1; 
stroke-linecap:round; stroke-linejoin:round;">
<circle cx="13143" cy="4125" r="135" /> 
</g>
<g style="fill:#C2C2C2; fill-opacity:1.0; 
stroke:#C2C2C2; stroke-width:39.3701; stroke-opacity:1; 
stroke-linecap:round; stroke-linejoin:round;">
</g>
<g style="fill:#C2C2C2; fill-opacity:1.0; 
stroke:#C2C2C2; stroke-width:0; stroke-opacity:1; 
stroke-linecap:round; stroke-linejoin:round;">
<circle cx="13193" cy="3875" r="135" /> 
</g>
<g style="fill:#C2C2C2; fill-opacity:1.0; 
stroke:#C2C2C2; stroke-width:39.3701; stroke-opacity:1; 
stroke-linecap:round; stroke-linejoin:round;">
</g>
<g style="fill:#C2C2C2; fill-opacity:1.0; 
stroke:#C2C2C2; stroke-width:0; stroke-opacity:1; 
stroke-linecap:round; stroke-linejoin:round;">
<circle cx="13543" cy="8225" r="135" /> 
</g>
<g style="fill:#C2C2C2; fill-opacity:1.0; 
stroke:#C2C2C2; stroke-width:39.3701; stroke-opacity:1; 
stroke-linecap:round; stroke-linejoin:round;">
</g>
<g style="fill:#C2C2C2; fill-opacity:1.0; 
stroke:#C2C2C2; stroke-width:0; stroke-opacity:1; 
stroke-linecap:round; stroke-linejoin:round;">
<circle cx="13293" cy="8475" r="135" /> 
</g>
<g style="fill:#C2C2C2; fill-opacity:1.0; 
stroke:#C2C2C2; stroke-width:39.3701; stroke-opacity:1; 
stroke-linecap:round; stroke-linejoin:round;">
</g>
<g style="fill:#C2C2C2; fill-opacity:1.0; 
stroke:#C2C2C2; stroke-width:0; stroke-opacity:1; 
stroke-linecap:round; stroke-linejoin:round;">
<circle cx="12943" cy="8475" r="135" /> 
</g>
<g style="fill:#C2C2C2; fill-opacity:1.0; 
stroke:#C2C2C2; stroke-width:39.3701; stroke-opacity:1; 
stroke-linecap:round; stroke-linejoin:round;">
</g>
<g style="fill:#C2C2C2; fill-opacity:1.0; 
stroke:#C2C2C2; stroke-width:0; stroke-opacity:1; 
stroke-linecap:round; stroke-linejoin:round;">
<circle cx="12643" cy="8475" r="135" /> 
</g>
<g style="fill:#C2C2C2; fill-opacity:1.0; 
stroke:#C2C2C2; stroke-width:39.3701; stroke-opacity:1; 
stroke-linecap:round; stroke-linejoin:round;">
</g>
<g style="fill:#C2C2C2; fill-opacity:1.0; 
stroke:#C2C2C2; stroke-width:0; stroke-opacity:1; 
stroke-linecap:round; stroke-linejoin:round;">
<circle cx="12343" cy="8425" r="135" /> 
</g>
<g style="fill:#C2C2C2; fill-opacity:1.0; 
stroke:#C2C2C2; stroke-width:39.3701; stroke-opacity:1; 
stroke-linecap:round; stroke-linejoin:round;">
</g>
<g style="fill:#C2C2C2; fill-opacity:1.0; 
stroke:#C2C2C2; stroke-width:0; stroke-opacity:1; 
stroke-linecap:round; stroke-linejoin:round;">
<circle cx="3293" cy="4275" r="135" /> 
</g>
<g style="fill:#C2C2C2; fill-opacity:1.0; 
stroke:#C2C2C2; stroke-width:39.3701; stroke-opacity:1; 
stroke-linecap:round; stroke-linejoin:round;">
</g>
<g style="fill:#C2C2C2; fill-opacity:1.0; 
stroke:#C2C2C2; stroke-width:0; stroke-opacity:1; 
stroke-linecap:round; stroke-linejoin:round;">
<circle cx="6543" cy="5052" r="135" /> 
</g>
<g style="fill:#C2C2C2; fill-opacity:1.0; 
stroke:#C2C2C2; stroke-width:39.3701; stroke-opacity:1; 
stroke-linecap:round; stroke-linejoin:round;">
</g>
<g style="fill:#C2C2C2; fill-opacity:1.0; 
stroke:#C2C2C2; stroke-width:0; stroke-opacity:1; 
stroke-linecap:round; stroke-linejoin:round;">
<circle cx="4393" cy="4675" r="135" /> 
</g>
<g style="fill:#C2C2C2; fill-opacity:1.0; 
stroke:#C2C2C2; stroke-width:39.3701; stroke-opacity:1; 
stroke-linecap:round; stroke-linejoin:round;">
</g>
<g style="fill:#840000; fill-opacity:1.0; 
stroke:#840000; stroke-width:39.3701; stroke-opacity:1; 
stroke-linecap:round; stroke-linejoin:round;">
</g>
<g style="fill:#840000; fill-opacity:1.0; 
stroke:#840000; stroke-width:314.961; stroke-opacity:1; 
stroke-linecap:round; stroke-linejoin:round;">
</g>
<g style="fill:#840000; fill-opacity:0.0; 
stroke:#840000; stroke-width:314.961; stroke-opacity:1; 
stroke-linecap:round; stroke-linejoin:round;">
<path d="M12843 6893
L12035 6893
" />
<path d="M12035 6893
L11985 6843
" />
<path d="M11985 6843
L9790 6843
" />
<path d="M14193 7025
L12974 7025
" />
<path d="M12974 7025
L12843 6893
" />
<path d="M8043 5095
L8043 5566
" />
<path d="M8043 5566
L7866 5742
" />
<path d="M7866 5742
L6219 5742
" />
<path d="M6219 5742
L6043 5566
" />
<path d="M6043 5566
L6043 5052
" />
<path d="M8043 4170
L9076 4170
" />
<path d="M9076 4170
L9091 4156
" />
<path d="M9790 6843
L8043 5095
" />
<path d="M8043 5095
L8043 4642
" />
<path d="M8043 4642
L8043 4170
" />
<path d="M4293 2115
L4293 2175
" />
<path d="M4293 2175
L3993 2475
" />
<path d="M4293 2115
L4293 2325
" />
<path d="M4293 2325
L4393 2425
" />
<path d="M4293 2115
L4433 2115
" />
<path d="M4433 2115
L4743 2425
" />
<path d="M4747 6575
L4457 6575
" />
<path d="M3293 7099
L3293 7425
" />
<path d="M2247 8275
L1993 8275
" />
<path d="M7543 7098
L7543 7675
" />
<path d="M7543 5052
L7543 4375
" />
<path d="M3428 5275
L3428 5360
" />
<path d="M3428 5360
L3793 5725
" />
<path d="M3428 5275
L3593 5275
" />
<path d="M3593 5275
L3793 5475
" />
<path d="M3428 5275
L3693 5275
" />
<path d="M3693 5275
L3793 5175
" />
<path d="M3428 5275
L3428 5239
" />
<path d="M3428 5239
L3793 4875
" />
<path d="M13795 4156
L13362 4156
" />
<path d="M13362 4156
L13143 4375
" />
<path d="M13795 4156
L13174 4156
" />
<path d="M13174 4156
L13143 4125
" />
<path d="M13795 4156
L13474 4156
" />
<path d="M13474 4156
L13193 3875
" />
<path d="M12843 8075
L13393 8075
" />
<path d="M13393 8075
L13543 8225
" />
<path d="M12843 8075
L12893 8075
" />
<path d="M12893 8075
L13293 8475
" />
<path d="M12843 8075
L12843 8375
" />
<path d="M12843 8375
L12943 8475
" />
<path d="M12843 8075
L12843 8275
" />
<path d="M12843 8275
L12643 8475
" />
<path d="M12843 8075
L12693 8075
" />
<path d="M12693 8075
L12343 8425
" />
<path d="M6043 4075
L6543 4075
" />
<path d="M5543 4075
L6043 4075
" />
<path d="M5357 5275
L5357 4260
" />
<path d="M5357 4260
L5543 4075
" />
<path d="M5338 6575
L5338 5294
" />
<path d="M5338 5294
L5357 5275
" />
<path d="M6043 7098
L5861 7098
" />
<path d="M5861 7098
L5338 6575
" />
<path d="M2793 950
L1267 950
" />
<path d="M1267 950
L1193 1025
" />
<path d="M4293 934
L2809 934
" />
<path d="M2809 934
L2793 950
" />
<path d="M6383 875
L4352 875
" />
<path d="M4352 875
L4293 934
" />
<path d="M3618 4175
L3393 4175
" />
<path d="M3393 4175
L3293 4275
" />
<path d="M2297 3925
L1293 3925
" />
<path d="M1293 3925
L1193 4025
" />
<path d="M2793 1699
L2793 2200
" />
<path d="M2838 7975
L2838 8175
" />
<path d="M2838 7682
L2838 7975
" />
<path d="M2838 7975
L2838 8275
" />
<path d="M2838 8275
L6613 8275
" />
<path d="M6613 8275
L7043 7845
" />
<path d="M7043 7845
L7043 7098
" />
<path d="M2888 3925
L2888 4003
" />
<path d="M2888 4003
L2474 4417
" />
<path d="M2474 4417
L2474 7319
" />
<path d="M2474 7319
L2838 7682
" />
<path d="M2793 2949
L2793 3829
" />
<path d="M2793 3829
L2888 3925
" />
<path d="M9238 4943
L9790 5495
" />
<path d="M9790 5495
L14443 5495
" />
<path d="M9091 4943
L9238 4943
" />
<path d="M9238 4943
L9848 5552
" />
<path d="M9848 5552
L14386 5552
" />
<path d="M14386 5552
L14909 5029
" />
<path d="M14909 5029
L14909 1364
" />
<path d="M14909 1364
L14552 1007
" />
<path d="M14552 1007
L13795 1007
" />
<path d="M14029 4708
L13795 4943
" />
<path d="M14443 4708
L14029 4708
" />
<path d="M14494 4656
L14443 4708
" />
<path d="M14494 2081
L14494 4656
" />
<path d="M14030 2029
L14443 2029
" />
<path d="M13795 1794
L14030 2029
" />
<path d="M14443 2029
L14494 2081
" />
<path d="M9091 1007
L7735 1007
" />
<path d="M7735 1007
L7603 875
" />
<path d="M3293 6350
L3914 6350
" />
<path d="M3914 6350
L4043 6479
" />
<path d="M4043 7070
L4505 7070
" />
<path d="M4505 7070
L5223 7788
" />
<path d="M5223 7788
L6366 7788
" />
<path d="M6366 7788
L6543 7612
" />
<path d="M6543 7612
L6543 7098
" />
<path d="M8043 2995
L8043 3579
" />
<path d="M4367 4175
L4367 4649
" />
<path d="M4367 4649
L4393 4675
" />
<path d="M6043 1871
L5543 1871
" />
<path d="M6543 1871
L6043 1871
" />
<path d="M7043 1871
L6543 1871
" />
<path d="M8043 1854
L7059 1854
" />
<path d="M7059 1854
L7043 1871
" />
<path d="M9091 1794
L8103 1794
" />
<path d="M8103 1794
L8043 1854
" />
<path d="M7043 4075
L7043 5052
" />
</g>
<g style="fill:#840000; fill-opacity:1.0; 
stroke:#840000; stroke-width:100; stroke-opacity:1; 
stroke-linecap:round; stroke-linejoin:round;">
<polyline style="fill-rule:evenodd;"
points="14030,2337
14187,2337
14187,3625
13393,3625
13393,2325
13970,2325
14030,2337
" /> 
<polyline style="fill-rule:evenodd;"
points="9493,3625
8693,3625
8693,2325
9493,2325
9493,3625
" /> 
<polyline style="fill-rule:evenodd;"
points="9493,4425
8443,4425
8423,4428
8407,4440
8396,4456
8393,4475
8393,5225
8396,5244
8407,5260
9607,6460
9624,6471
9643,6475
14743,6475
14743,7525
14344,7525
14296,7505
14090,7504
14041,7525
11793,7525
11773,7528
11757,7540
11746,7556
11743,7575
11743,7975
7893,7975
7893,6475
7889,6455
7877,6439
7861,6428
7843,6425
5743,6425
5743,4525
6243,4525
6243,5575
6246,5594
6258,5610
6274,5621
6293,5625
6364,5625
6365,5625
6425,5637
6661,5637
6716,5627
6720,5625
6864,5625
6865,5625
6925,5637
7161,5637
7216,5627
7220,5625
7364,5625
7365,5625
7425,5637
7661,5637
7716,5627
7720,5625
7793,5625
7812,5621
7828,5609
7839,5593
7843,5575
7843,5089
7850,5052
7850,4375
7843,4337
7843,3879
7895,3890
8190,3890
8246,3879
8253,3875
9493,3875
9493,4425
" /> 
<polyline style="fill-rule:evenodd;"
points="9493,2075
8493,2075
8473,2078
8457,2090
8446,2106
8443,2125
8443,2325
5293,2325
5293,1525
9493,1525
9493,2075
" /> 
<polyline style="fill-rule:evenodd;"
points="6643,4275
5543,4275
5523,4278
5507,4290
5496,4306
5493,4325
5493,6625
5496,6644
5508,6660
5524,6671
5543,6675
6143,6675
6143,7475
5711,7475
5093,6951
5093,6275
5089,6255
5077,6239
5061,6228
5043,6225
4843,6225
4843,3575
6643,3575
6643,4275
" /> 
</g>
<g style="fill:#FFFFFF; fill-opacity:1.0; 
stroke:#FFFFFF; stroke-width:100; stroke-opacity:1; 
stroke-linecap:round; stroke-linejoin:round;">
</g>
<g style="fill:#FFFFFF; fill-opacity:1.0; 
stroke:#FFFFFF; stroke-width:0; stroke-opacity:1; 
stroke-linecap:round; stroke-linejoin:round;">
<circle cx="3993" cy="2475" r="65" /> 
</g>
<g style="fill:#FFFFFF; fill-opacity:1.0; 
stroke:#FFFFFF; stroke-width:39.3701; stroke-opacity:1; 
stroke-linecap:round; stroke-linejoin:round;">
</g>
<g style="fill:#FFFFFF; fill-opacity:1.0; 
stroke:#FFFFFF; stroke-width:0; stroke-opacity:1; 
stroke-linecap:round; stroke-linejoin:round;">
<circle cx="4393" cy="2425" r="65" /> 
</g>
<g style="fill:#FFFFFF; fill-opacity:1.0; 
stroke:#FFFFFF; stroke-width:39.3701; stroke-opacity:1; 
stroke-linecap:round; stroke-linejoin:round;">
</g>
<g style="fill:#FFFFFF; fill-opacity:1.0; 
stroke:#FFFFFF; stroke-width:0; stroke-opacity:1; 
stroke-linecap:round; stroke-linejoin:round;">
<circle cx="4743" cy="2425" r="65" /> 
</g>
<g style="fill:#FFFFFF; fill-opacity:1.0; 
stroke:#FFFFFF; stroke-width:39.3701; stroke-opacity:1; 
stroke-linecap:round; stroke-linejoin:round;">
</g>
<g style="fill:#FFFFFF; fill-opacity:1.0; 
stroke:#FFFFFF; stroke-width:0; stroke-opacity:1; 
stroke-linecap:round; stroke-linejoin:round;">
<circle cx="4457.96" cy="6575" r="65" /> 
</g>
<g style="fill:#FFFFFF; fill-opacity:1.0; 
stroke:#FFFFFF; stroke-width:39.3701; stroke-opacity:1; 
stroke-linecap:round; stroke-linejoin:round;">
</g>
<g style="fill:#FFFFFF; fill-opacity:1.0; 
stroke:#FFFFFF; stroke-width:0; stroke-opacity:1; 
stroke-linecap:round; stroke-linejoin:round;">
<circle cx="3293" cy="7425" r="65" /> 
</g>
<g style="fill:#FFFFFF; fill-opacity:1.0; 
stroke:#FFFFFF; stroke-width:39.3701; stroke-opacity:1; 
stroke-linecap:round; stroke-linejoin:round;">
</g>
<g style="fill:#FFFFFF; fill-opacity:1.0; 
stroke:#FFFFFF; stroke-width:0; stroke-opacity:1; 
stroke-linecap:round; stroke-linejoin:round;">
<circle cx="1993" cy="8275" r="65" /> 
</g>
<g style="fill:#FFFFFF; fill-opacity:1.0; 
stroke:#FFFFFF; stroke-width:39.3701; stroke-opacity:1; 
stroke-linecap:round; stroke-linejoin:round;">
</g>
<g style="fill:#FFFFFF; fill-opacity:1.0; 
stroke:#FFFFFF; stroke-width:0; stroke-opacity:1; 
stroke-linecap:round; stroke-linejoin:round;">
<circle cx="7543" cy="7675" r="65" /> 
</g>
<g style="fill:#FFFFFF; fill-opacity:1.0; 
stroke:#FFFFFF; stroke-width:39.3701; stroke-opacity:1; 
stroke-linecap:round; stroke-linejoin:round;">
</g>
<g style="fill:#FFFFFF; fill-opacity:1.0; 
stroke:#FFFFFF; stroke-width:0; stroke-opacity:1; 
stroke-linecap:round; stroke-linejoin:round;">
<circle cx="7543" cy="4375" r="65" /> 
</g>
<g style="fill:#FFFFFF; fill-opacity:1.0; 
stroke:#FFFFFF; stroke-width:39.3701; stroke-opacity:1; 
stroke-linecap:round; stroke-linejoin:round;">
</g>
<g style="fill:#FFFFFF; fill-opacity:1.0; 
stroke:#FFFFFF; stroke-width:0; stroke-opacity:1; 
stroke-linecap:round; stroke-linejoin:round;">
<circle cx="3793" cy="5725" r="65" /> 
</g>
<g style="fill:#FFFFFF; fill-opacity:1.0; 
stroke:#FFFFFF; stroke-width:39.3701; stroke-opacity:1; 
stroke-linecap:round; stroke-linejoin:round;">
</g>
<g style="fill:#FFFFFF; fill-opacity:1.0; 
stroke:#FFFFFF; stroke-width:0; stroke-opacity:1; 
stroke-linecap:round; stroke-linejoin:round;">
<circle cx="3793" cy="5475" r="65" /> 
</g>
<g style="fill:#FFFFFF; fill-opacity:1.0; 
stroke:#FFFFFF; stroke-width:39.3701; stroke-opacity:1; 
stroke-linecap:round; stroke-linejoin:round;">
</g>
<g style="fill:#FFFFFF; fill-opacity:1.0; 
stroke:#FFFFFF; stroke-width:0; stroke-opacity:1; 
stroke-linecap:round; stroke-linejoin:round;">
<circle cx="3793" cy="5175" r="65" /> 
</g>
<g style="fill:#FFFFFF; fill-opacity:1.0; 
stroke:#FFFFFF; stroke-width:39.3701; stroke-opacity:1; 
stroke-linecap:round; stroke-linejoin:round;">
</g>
<g style="fill:#FFFFFF; fill-opacity:1.0; 
stroke:#FFFFFF; stroke-width:0; stroke-opacity:1; 
stroke-linecap:round; stroke-linejoin:round;">
<circle cx="3793" cy="4875" r="65" /> 
</g>
<g style="fill:#FFFFFF; fill-opacity:1.0; 
stroke:#FFFFFF; stroke-width:39.3701; stroke-opacity:1; 
stroke-linecap:round; stroke-linejoin:round;">
</g>
<g style="fill:#FFFFFF; fill-opacity:1.0; 
stroke:#FFFFFF; stroke-width:0; stroke-opacity:1; 
stroke-linecap:round; stroke-linejoin:round;">
<circle cx="13143" cy="4375" r="65" /> 
</g>
<g style="fill:#FFFFFF; fill-opacity:1.0; 
stroke:#FFFFFF; stroke-width:39.3701; stroke-opacity:1; 
stroke-linecap:round; stroke-linejoin:round;">
</g>
<g style="fill:#FFFFFF; fill-opacity:1.0; 
stroke:#FFFFFF; stroke-width:0; stroke-opacity:1; 
stroke-linecap:round; stroke-linejoin:round;">
<circle cx="13143" cy="4125" r="65" /> 
</g>
<g style="fill:#FFFFFF; fill-opacity:1.0; 
stroke:#FFFFFF; stroke-width:39.3701; stroke-opacity:1; 
stroke-linecap:round; stroke-linejoin:round;">
</g>
<g style="fill:#FFFFFF; fill-opacity:1.0; 
stroke:#FFFFFF; stroke-width:0; stroke-opacity:1; 
stroke-linecap:round; stroke-linejoin:round;">
<circle cx="13193" cy="3875" r="65" /> 
</g>
<g style="fill:#FFFFFF; fill-opacity:1.0; 
stroke:#FFFFFF; stroke-width:39.3701; stroke-opacity:1; 
stroke-linecap:round; stroke-linejoin:round;">
</g>
<g style="fill:#FFFFFF; fill-opacity:1.0; 
stroke:#FFFFFF; stroke-width:0; stroke-opacity:1; 
stroke-linecap:round; stroke-linejoin:round;">
<circle cx="13543" cy="8225" r="65" /> 
</g>
<g style="fill:#FFFFFF; fill-opacity:1.0; 
stroke:#FFFFFF; stroke-width:39.3701; stroke-opacity:1; 
stroke-linecap:round; stroke-linejoin:round;">
</g>
<g style="fill:#FFFFFF; fill-opacity:1.0; 
stroke:#FFFFFF; stroke-width:0; stroke-opacity:1; 
stroke-linecap:round; stroke-linejoin:round;">
<circle cx="13293" cy="8475" r="65" /> 
</g>
<g style="fill:#FFFFFF; fill-opacity:1.0; 
stroke:#FFFFFF; stroke-width:39.3701; stroke-opacity:1; 
stroke-linecap:round; stroke-linejoin:round;">
</g>
<g style="fill:#FFFFFF; fill-opacity:1.0; 
stroke:#FFFFFF; stroke-width:0; stroke-opacity:1; 
stroke-linecap:round; stroke-linejoin:round;">
<circle cx="12943" cy="8475" r="65" /> 
</g>
<g style="fill:#FFFFFF; fill-opacity:1.0; 
stroke:#FFFFFF; stroke-width:39.3701; stroke-opacity:1; 
stroke-linecap:round; stroke-linejoin:round;">
</g>
<g style="fill:#FFFFFF; fill-opacity:1.0; 
stroke:#FFFFFF; stroke-width:0; stroke-opacity:1; 
stroke-linecap:round; stroke-linejoin:round;">
<circle cx="12643" cy="8475" r="65" /> 
</g>
<g style="fill:#FFFFFF; fill-opacity:1.0; 
stroke:#FFFFFF; stroke-width:39.3701; stroke-opacity:1; 
stroke-linecap:round; stroke-linejoin:round;">
</g>
<g style="fill:#FFFFFF; fill-opacity:1.0; 
stroke:#FFFFFF; stroke-width:0; stroke-opacity:1; 
stroke-linecap:round; stroke-linejoin:round;">
<circle cx="12343" cy="8425" r="65" /> 
</g>
<g style="fill:#FFFFFF; fill-opacity:1.0; 
stroke:#FFFFFF; stroke-width:39.3701; stroke-opacity:1; 
stroke-linecap:round; stroke-linejoin:round;">
</g>
<g style="fill:#FFFFFF; fill-opacity:1.0; 
stroke:#FFFFFF; stroke-width:0; stroke-opacity:1; 
stroke-linecap:round; stroke-linejoin:round;">
<circle cx="3293" cy="4275" r="65" /> 
</g>
<g style="fill:#FFFFFF; fill-opacity:1.0; 
stroke:#FFFFFF; stroke-width:39.3701; stroke-opacity:1; 
stroke-linecap:round; stroke-linejoin:round;">
</g>
<g style="fill:#FFFFFF; fill-opacity:1.0; 
stroke:#FFFFFF; stroke-width:0; stroke-opacity:1; 
stroke-linecap:round; stroke-linejoin:round;">
<circle cx="6543" cy="5052" r="65" /> 
</g>
<g style="fill:#FFFFFF; fill-opacity:1.0; 
stroke:#FFFFFF; stroke-width:39.3701; stroke-opacity:1; 
stroke-linecap:round; stroke-linejoin:round;">
</g>
<g style="fill:#FFFFFF; fill-opacity:1.0; 
stroke:#FFFFFF; stroke-width:0; stroke-opacity:1; 
stroke-linecap:round; stroke-linejoin:round;">
<circle cx="4393" cy="4675" r="65" /> 
</g>
<g style="fill:#FFFFFF; fill-opacity:1.0; 
stroke:#FFFFFF; stroke-width:39.3701; stroke-opacity:1; 
stroke-linecap:round; stroke-linejoin:round;">
</g>
<g style="fill:#FFFFFF; fill-opacity:1.0; 
stroke:#FFFFFF; stroke-width:0; stroke-opacity:1; 
stroke-linecap:round; stroke-linejoin:round;">
<circle cx="1193" cy="2025" r="200" /> 
</g>
<g style="fill:#FFFFFF; fill-opacity:1.0; 
stroke:#FFFFFF; stroke-width:39.3701; stroke-opacity:1; 
stroke-linecap:round; stroke-linejoin:round;">
</g>
<g style="fill:#FFFFFF; fill-opacity:1.0; 
stroke:#FFFFFF; stroke-width:0; stroke-opacity:1; 
stroke-linecap:round; stroke-linejoin:round;">
<circle cx="1193" cy="1025" r="200" /> 
</g>
<g style="fill:#FFFFFF; fill-opacity:1.0; 
stroke:#FFFFFF; stroke-width:39.3701; stroke-opacity:1; 
stroke-linecap:round; stroke-linejoin:round;">
</g>
<g style="fill:#FFFFFF; fill-opacity:1.0; 
stroke:#FFFFFF; stroke-width:0; stroke-opacity:1; 
stroke-linecap:round; stroke-linejoin:round;">
<circle cx="1193" cy="4025" r="200" /> 
</g>
<g style="fill:#FFFFFF; fill-opacity:1.0; 
stroke:#FFFFFF; stroke-width:39.3701; stroke-opacity:1; 
stroke-linecap:round; stroke-linejoin:round;">
</g>
<g style="fill:#FFFFFF; fill-opacity:1.0; 
stroke:#FFFFFF; stroke-width:0; stroke-opacity:1; 
stroke-linecap:round; stroke-linejoin:round;">
<circle cx="1193" cy="5025" r="200" /> 
</g>
<g style="fill:#FFFFFF; fill-opacity:1.0; 
stroke:#FFFFFF; stroke-width:39.3701; stroke-opacity:1; 
stroke-linecap:round; stroke-linejoin:round;">
</g>
<g style="fill:#FFFFFF; fill-opacity:1.0; 
stroke:#FFFFFF; stroke-width:0; stroke-opacity:1; 
stroke-linecap:round; stroke-linejoin:round;">
<circle cx="14193" cy="8025" r="200" /> 
</g>
<g style="fill:#FFFFFF; fill-opacity:1.0; 
stroke:#FFFFFF; stroke-width:39.3701; stroke-opacity:1; 
stroke-linecap:round; stroke-linejoin:round;">
</g>
<g style="fill:#FFFFFF; fill-opacity:1.0; 
stroke:#FFFFFF; stroke-width:0; stroke-opacity:1; 
stroke-linecap:round; stroke-linejoin:round;">
<circle cx="14193" cy="7025" r="200" /> 
</g>
<g style="fill:#FFFFFF; fill-opacity:1.0; 
stroke:#FFFFFF; stroke-width:39.3701; stroke-opacity:1; 
stroke-linecap:round; stroke-linejoin:round;">
</g>
<g style="fill:#000000; fill-opacity:1.0; 
stroke:#000000; stroke-width:39.3701; stroke-opacity:1; 
stroke-linecap:round; stroke-linejoin:round;">
</g> 
</svg>
