<?xml version="1.0" standalone="no"?>
 <!DOCTYPE svg PUBLIC "-//W3C//DTD SVG 1.1//EN" 
 "http://www.w3.org/Graphics/SVG/1.1/DTD/svg11.dtd"> 
<svg xmlns="http://www.w3.org/2000/svg" version="1.1" 
    width="4.2291cm" height="2.42824cm" viewBox="0 0 16650 9560 ">
<title>SVG Picture created as HVPS_SMD-F.SilkS.svg date 2017/11/09 19:49:47 </title>
  <desc>Picture generated by PCBNEW </desc>
<g style="fill:#000000; fill-opacity:1;stroke:#000000; stroke-opacity:1;
stroke-linecap:round; stroke-linejoin:round; "
 transform="translate(0 0) scale(1 1)">
</g>
<g style="fill:#008484; fill-opacity:0.0; 
stroke:#008484; stroke-width:-0.000393701; stroke-opacity:1; 
stroke-linecap:round; stroke-linejoin:round;">
</g>
<g style="fill:#008484; fill-opacity:0.0; 
stroke:#008484; stroke-width:50; stroke-opacity:1; 
stroke-linecap:round; stroke-linejoin:round;">
<path d="M1872 4738
L1636 4816
L1872 4895
" />
<path d="M1647 5064
L1636 5041
L1636 4996
L1647 4974
L1669 4963
L1759 4963
L1782 4974
L1793 4996
L1793 5041
L1782 5064
L1759 5075
L1737 5075
L1714 4963
" />
<path d="M1793 5176
L1636 5176
" />
<path d="M1771 5176
L1782 5188
L1793 5210
L1793 5244
L1782 5266
L1759 5278
L1636 5278
" />
<path d="M1922 3676
L1686 3755
L1922 3833
" />
<path d="M1686 4013
L1809 4013
L1832 4002
L1843 3980
L1843 3935
L1832 3912
" />
<path d="M1697 4013
L1686 3991
L1686 3935
L1697 3912
L1719 3901
L1742 3901
L1764 3912
L1776 3935
L1776 3991
L1787 4013
" />
<path d="M1686 4227
L1922 4227
" />
<path d="M1697 4227
L1686 4204
L1686 4159
L1697 4137
L1708 4126
L1731 4114
L1798 4114
L1821 4126
L1832 4137
L1843 4159
L1843 4204
L1832 4227
" />
<path d="M1843 4339
L1641 4339
L1618 4328
L1607 4306
L1607 4294
" />
<path d="M1922 4339
L1911 4328
L1899 4339
L1911 4351
L1922 4339
L1899 4339
" />
<path d="M1911 1845
L1922 1822
L1922 1788
L1911 1755
L1888 1732
L1866 1721
L1821 1710
L1787 1710
L1742 1721
L1719 1732
L1697 1755
L1686 1788
L1686 1811
L1697 1845
L1708 1856
L1787 1856
L1787 1811
" />
<path d="M1686 1957
L1922 1957
L1686 2092
L1922 2092
" />
<path d="M1686 2204
L1922 2204
L1922 2261
L1911 2294
L1888 2317
L1866 2328
L1821 2339
L1787 2339
L1742 2328
L1719 2317
L1697 2294
L1686 2261
L1686 2204
" />
<path d="M1736 906
L1972 906
" />
<path d="M1859 906
L1859 1041
" />
<path d="M1736 1041
L1972 1041
" />
<path d="M1972 1119
L1736 1198
L1972 1277
" />
<path d="M14724 8204
L14713 8227
L14713 8261
L14724 8294
L14747 8317
L14769 8328
L14814 8339
L14848 8339
L14893 8328
L14916 8317
L14938 8294
L14949 8261
L14949 8238
L14938 8204
L14927 8193
L14848 8193
L14848 8238
" />
<path d="M14949 8092
L14713 8092
L14949 7957
L14713 7957
" />
<path d="M14949 7845
L14713 7845
L14713 7788
L14724 7755
L14747 7732
L14769 7721
L14814 7710
L14848 7710
L14893 7721
L14916 7732
L14938 7755
L14949 7788
L14949 7845
" />
<path d="M14713 7577
L14713 7431
L14803 7509
L14803 7476
L14814 7453
L14826 7442
L14848 7431
L14904 7431
L14927 7442
L14938 7453
L14949 7476
L14949 7543
L14938 7566
L14927 7577
" />
<path d="M14713 7363
L14949 7284
L14713 7206
" />
<path d="M14859 7127
L14859 6947
" />
<path d="M14949 6711
L14949 6846
" />
<path d="M14949 6778
L14713 6778
L14747 6801
L14769 6823
L14781 6846
" />
<path d="M14736 6621
L14724 6610
L14713 6587
L14713 6531
L14724 6508
L14736 6497
L14758 6486
L14781 6486
L14814 6497
L14949 6632
L14949 6486
" />
<path d="M14713 6418
L14949 6340
L14713 6261
" />
</g>
<g style="fill:#C2C200; fill-opacity:0.0; 
stroke:#C2C200; stroke-width:50; stroke-opacity:1; 
stroke-linecap:round; stroke-linejoin:round;">
<path d="M15193 25
L693 25
" />
<path d="M15193 9025
L15193 25
" />
<path d="M693 9025
L15193 9025
" />
<path d="M693 25
L693 9025
" />
</g>
<g style="fill:#C2C200; fill-opacity:0.0; 
stroke:#C2C200; stroke-width:59.0551; stroke-opacity:1; 
stroke-linecap:round; stroke-linejoin:round;">
<path d="M12777 7625
L12758 7643
L12702 7662
L12664 7662
L12608 7643
L12571 7606
L12552 7568
L12533 7493
L12533 7437
L12552 7362
L12571 7325
L12608 7287
L12664 7268
L12702 7268
L12758 7287
L12777 7306
" />
<path d="M13152 7662
L12927 7662
" />
<path d="M13039 7662
L13039 7268
L13002 7325
L12964 7362
L12927 7381
" />
<path d="M4977 7365
L4958 7384
L4902 7403
L4864 7403
L4808 7384
L4771 7346
L4752 7309
L4733 7234
L4733 7178
L4752 7103
L4771 7065
L4808 7028
L4864 7009
L4902 7009
L4958 7028
L4977 7046
" />
<path d="M5127 7046
L5146 7028
L5183 7009
L5277 7009
L5314 7028
L5333 7046
L5352 7084
L5352 7121
L5333 7178
L5108 7403
L5352 7403
" />
<path d="M4227 1665
L4208 1684
L4152 1703
L4114 1703
L4058 1684
L4021 1646
L4002 1609
L3983 1534
L3983 1478
L4002 1403
L4021 1365
L4058 1328
L4114 1309
L4152 1309
L4208 1328
L4227 1346
" />
<path d="M4358 1309
L4602 1309
L4471 1459
L4527 1459
L4564 1478
L4583 1496
L4602 1534
L4602 1628
L4583 1665
L4564 1684
L4527 1703
L4414 1703
L4377 1684
L4358 1665
" />
<path d="M3808 7565
L3789 7584
L3733 7603
L3696 7603
L3639 7584
L3602 7546
L3583 7509
L3564 7434
L3564 7378
L3583 7303
L3602 7265
L3639 7228
L3696 7209
L3733 7209
L3789 7228
L3808 7246
" />
<path d="M4146 7584
L4108 7603
L4033 7603
L3996 7584
L3977 7565
L3958 7528
L3958 7415
L3977 7378
L3996 7359
L4033 7340
L4108 7340
L4146 7359
" />
<path d="M4521 7603
L4296 7603
" />
<path d="M4408 7603
L4408 7209
L4371 7265
L4333 7303
L4296 7321
" />
<path d="M7768 4815
L7749 4834
L7693 4853
L7655 4853
L7599 4834
L7561 4796
L7543 4759
L7524 4684
L7524 4628
L7543 4553
L7561 4515
L7599 4478
L7655 4459
L7693 4459
L7749 4478
L7768 4496
" />
<path d="M7918 4834
L7955 4853
L8030 4853
L8067 4834
L8086 4796
L8086 4778
L8067 4740
L8030 4721
L7974 4721
L7936 4703
L7918 4665
L7918 4646
L7936 4609
L7974 4590
L8030 4590
L8067 4609
" />
<path d="M8461 4853
L8236 4853
" />
<path d="M8349 4853
L8349 4459
L8311 4515
L8274 4553
L8236 4571
" />
<path d="M3477 1503
L3346 1315
" />
<path d="M3252 1503
L3252 1109
L3402 1109
L3439 1128
L3458 1146
L3477 1184
L3477 1240
L3458 1278
L3439 1296
L3402 1315
L3252 1315
" />
<path d="M3852 1503
L3627 1503
" />
<path d="M3739 1503
L3739 1109
L3702 1165
L3664 1203
L3627 1221
" />
<path d="M3427 2803
L3296 2615
" />
<path d="M3202 2803
L3202 2409
L3352 2409
L3389 2428
L3408 2446
L3427 2484
L3427 2540
L3408 2578
L3389 2596
L3352 2615
L3202 2615
" />
<path d="M3577 2446
L3596 2428
L3633 2409
L3727 2409
L3764 2428
L3783 2446
L3802 2484
L3802 2521
L3783 2578
L3558 2803
L3802 2803
" />
<path d="M2477 7898
L2346 7710
" />
<path d="M2252 7898
L2252 7504
L2402 7504
L2439 7523
L2458 7542
L2477 7579
L2477 7635
L2458 7673
L2439 7692
L2402 7710
L2252 7710
" />
<path d="M2608 7504
L2852 7504
L2721 7654
L2777 7654
L2814 7673
L2833 7692
L2852 7729
L2852 7823
L2833 7860
L2814 7879
L2777 7898
L2664 7898
L2627 7879
L2608 7860
" />
<path d="M2527 3603
L2396 3415
" />
<path d="M2302 3603
L2302 3209
L2452 3209
L2489 3228
L2508 3246
L2527 3284
L2527 3340
L2508 3378
L2489 3396
L2452 3415
L2302 3415
" />
<path d="M2864 3340
L2864 3603
" />
<path d="M2771 3190
L2677 3471
L2921 3471
" />
<path d="M2158 6903
L2027 6715
" />
<path d="M1933 6903
L1933 6509
L2083 6509
L2121 6528
L2139 6546
L2158 6584
L2158 6640
L2139 6678
L2121 6696
L2083 6715
L1933 6715
" />
<path d="M2496 6884
L2458 6903
L2383 6903
L2346 6884
L2327 6865
L2308 6828
L2308 6715
L2327 6678
L2346 6659
L2383 6640
L2458 6640
L2496 6659
" />
<path d="M2871 6903
L2646 6903
" />
<path d="M2758 6903
L2758 6509
L2721 6565
L2683 6603
L2646 6621
" />
<path d="M3814 3703
L3683 3515
" />
<path d="M3589 3703
L3589 3309
L3739 3309
L3777 3328
L3796 3346
L3814 3384
L3814 3440
L3796 3478
L3777 3496
L3739 3515
L3589 3515
" />
<path d="M3927 3440
L4077 3440
" />
<path d="M3983 3703
L3983 3365
L4002 3328
L4039 3309
L4077 3309
" />
<path d="M4414 3703
L4189 3703
" />
<path d="M4302 3703
L4302 3309
L4264 3365
L4227 3403
L4189 3421
" />
<path d="M3971 6253
L3839 6065
" />
<path d="M3746 6253
L3746 5859
L3896 5859
L3933 5878
L3952 5896
L3971 5934
L3971 5990
L3952 6028
L3933 6046
L3896 6065
L3746 6065
" />
<path d="M4121 6234
L4158 6253
L4233 6253
L4271 6234
L4289 6196
L4289 6178
L4271 6140
L4233 6121
L4177 6121
L4139 6103
L4121 6065
L4121 6046
L4139 6009
L4177 5990
L4233 5990
L4271 6009
" />
<path d="M4608 6234
L4571 6253
L4496 6253
L4458 6234
L4439 6196
L4439 6046
L4458 6009
L4496 5990
L4571 5990
L4608 6009
L4627 6046
L4627 6084
L4439 6121
" />
<path d="M4796 5990
L4796 6253
" />
<path d="M4796 6028
L4814 6009
L4852 5990
L4908 5990
L4946 6009
L4964 6046
L4964 6253
" />
<path d="M5358 6253
L5133 6253
" />
<path d="M5246 6253
L5246 5859
L5208 5915
L5171 5953
L5133 5971
" />
<path d="M7818 2603
L7686 2415
" />
<path d="M7593 2603
L7593 2209
L7743 2209
L7780 2228
L7799 2246
L7818 2284
L7818 2340
L7799 2378
L7780 2396
L7743 2415
L7593 2415
" />
<path d="M7968 2584
L8005 2603
L8080 2603
L8117 2584
L8136 2546
L8136 2528
L8117 2490
L8080 2471
L8024 2471
L7986 2453
L7968 2415
L7968 2396
L7986 2359
L8024 2340
L8080 2340
L8117 2359
" />
<path d="M8511 2603
L8286 2603
" />
<path d="M8399 2603
L8399 2209
L8361 2265
L8324 2303
L8286 2321
" />
</g>
<g style="fill:#008484; fill-opacity:0.0; 
stroke:#008484; stroke-width:59.0551; stroke-opacity:1; 
stroke-linecap:round; stroke-linejoin:round;">
</g>
<g style="fill:#008484; fill-opacity:0.0; 
stroke:#008484; stroke-width:40; stroke-opacity:1; 
stroke-linecap:round; stroke-linejoin:round;">
<path d="M11262 2701
L11547 2701
" />
<path d="M11404 3201
L11404 2701
" />
<path d="M11976 3201
L11690 3201
" />
<path d="M11833 3201
L11833 2701
L11785 2772
L11738 2820
L11690 2844
" />
</g>
<g style="fill:#008484; fill-opacity:0.0; 
stroke:#008484; stroke-width:50; stroke-opacity:1; 
stroke-linecap:round; stroke-linejoin:round;">
<path d="M4900 3104
L4877 3093
L4854 3070
L4820 3035
L4797 3024
L4774 3024
" />
<path d="M4785 3081
L4763 3070
L4740 3047
L4728 3001
L4728 2921
L4740 2875
L4763 2853
L4785 2841
L4831 2841
L4854 2853
L4877 2875
L4888 2921
L4888 3001
L4877 3047
L4854 3070
L4831 3081
L4785 3081
" />
<path d="M5117 3081
L4980 3081
" />
<path d="M5048 3081
L5048 2841
L5025 2875
L5003 2898
L4980 2910
" />
</g>
<g style="fill:#008484; fill-opacity:0.0; 
stroke:#008484; stroke-width:47.2441; stroke-opacity:1; 
stroke-linecap:round; stroke-linejoin:round;">
<path d="M13425 7878
L13425 7090
" />
<path d="M12260 7090
L12260 7878
" />
<path d="M4905 6338
L5180 6338
" />
<path d="M5180 6811
L4905 6811
" />
<path d="M4875 1918
L4875 1131
" />
<path d="M3710 1131
L3710 1918
" />
<path d="M4279 6637
L4279 6912
" />
<path d="M3806 6912
L3806 6637
" />
<path d="M8279 3737
L8279 4012
" />
<path d="M7806 4012
L7806 3737
" />
</g>
<g style="fill:#008484; fill-opacity:0.0; 
stroke:#008484; stroke-width:50; stroke-opacity:1; 
stroke-linecap:round; stroke-linejoin:round;">
<path d="M6373 500
L7613 500
" />
<path d="M7613 500
L7613 1250
" />
<path d="M7613 1250
L6373 1250
" />
<path d="M6373 1250
L6373 500
" />
<path d="M6043 500
L6043 1250
" />
</g>
<g style="fill:#008484; fill-opacity:0.0; 
stroke:#008484; stroke-width:47.2441; stroke-opacity:1; 
stroke-linecap:round; stroke-linejoin:round;">
<path d="M2446 1561
L2446 1088
" />
<path d="M3139 1088
L3139 1561
" />
<path d="M2446 2811
L2446 2338
" />
<path d="M3139 2338
L3139 2811
" />
<path d="M2346 8007
L2739 8007
" />
<path d="M2739 8542
L2346 8542
" />
<path d="M2789 4192
L2396 4192
" />
<path d="M2396 3657
L2789 3657
" />
<path d="M2946 6961
L2946 6488
" />
<path d="M3639 6488
L3639 6961
" />
<path d="M4229 4521
L3756 4521
" />
<path d="M3756 3828
L4229 3828
" />
<path d="M3625 4692
L5160 4692
" />
<path d="M5160 5857
L3625 5857
" />
<path d="M8464 2031
L8464 2818
" />
<path d="M7621 2818
L7621 2031
" />
</g>
<g style="fill:#008484; fill-opacity:0.0; 
stroke:#008484; stroke-width:50; stroke-opacity:1; 
stroke-linecap:round; stroke-linejoin:round;">
<path d="M10443 725
L10193 975
" />
<path d="M10193 975
L9943 725
" />
<path d="M9943 725
L10443 725
" />
<path d="M14002 436
L8884 436
" />
<path d="M8884 5514
L14002 5514
" />
<path d="M13254 475
L13254 5475
" />
<path d="M9632 475
L9632 5475
" />
</g>
<g style="fill:#008484; fill-opacity:0.0; 
stroke:#008484; stroke-width:80; stroke-opacity:1; 
stroke-linecap:round; stroke-linejoin:round;">
<path d="M7737 5327
L7737 6626
" />
<path d="M7737 6626
L7737 6823
" />
<path d="M7737 6823
L5849 6823
" />
<path d="M5849 6823
L5849 6626
" />
<path d="M5849 6626
L5849 5327
" />
<path d="M5849 5327
L7737 5327
" />
<path d="M7737 6626
L5849 6626
" />
</g>
<g style="fill:#008484; fill-opacity:0.0; 
stroke:#008484; stroke-width:50; stroke-opacity:1; 
stroke-linecap:round; stroke-linejoin:round;">
<circle cx="6043" cy="6375" r="111" /> 
</g>
<g style="fill:#008484; fill-opacity:0.0; 
stroke:#008484; stroke-width:150; stroke-opacity:1; 
stroke-linecap:round; stroke-linejoin:round;">
<path d="M9297 8191
L9769 6971
" />
<path d="M9769 6971
L9533 7128
" />
<path d="M9139 7404
L9651 6301
" />
<path d="M9297 8191
L9533 7916
" />
<path d="M9454 6223
L9139 7404
" />
<path d="M9139 7404
L9611 7089
" />
<path d="M9611 7089
L9297 8191
" />
<path d="M9297 8191
L9257 7837
" />
<path d="M9493 5675
L11343 8425
" />
<path d="M11343 8425
L7643 8425
" />
<path d="M7643 8425
L9493 5675
" />
</g>
<g style="fill:#008484; fill-opacity:0.0; 
stroke:#008484; stroke-width:80; stroke-opacity:1; 
stroke-linecap:round; stroke-linejoin:round;">
<path d="M7213 2207
L5373 2207
" />
<path d="M5373 3739
L7252 3739
" />
<path d="M7363 3589
L7363 2357
" />
<path d="M5223 2402
L5223 2733
" />
<path d="M5223 3628
L5223 3233
" />
</g>
<g style="fill:#008484; fill-opacity:1.0; 
stroke:#008484; stroke-width:1; stroke-opacity:1; 
stroke-linecap:round; stroke-linejoin:round;">
<polyline style="fill-rule:evenodd;"
points="5231,3910
5228,3882
5219,3856
5204,3832
5184,3812
5160,3797
5134,3788
5106,3785
5078,3788
5052,3797
5028,3812
5008,3832
4993,3856
4984,3882
4981,3910
4984,3938
4993,3964
5008,3988
5028,4008
5052,4023
5078,4032
5106,4035
5134,4032
5160,4023
5184,4008
5204,3988
5219,3964
5228,3938
5231,3910
" /> 
</g>
<g style="fill:#008484; fill-opacity:0.0; 
stroke:#008484; stroke-width:80; stroke-opacity:1; 
stroke-linecap:round; stroke-linejoin:round;">
<path d="M7251 3739 A132.371 132.371 0.0 0 0 7363 3589 " />
<path d="M5373 2207 A171.172 171.172 0.0 0 0 5223 2397 " />
<path d="M7363 2357 A150 150 0.0 0 0 7213 2207 " />
<path d="M5224 3628 A131.381 131.381 0.0 0 0 5373 3739 " />
<path d="M5243 3233 A250 250 0.0 0 0 5243 2733 " />
</g> 
</svg>
