%TF.GenerationSoftware,KiCad,Pcbnew,4.0.6*%
%TF.CreationDate,2017-10-03T21:34:55-04:00*%
%TF.ProjectId,HVPS_SMD,485650535F534D442E6B696361645F70,rev?*%
%TF.FileFunction,Paste,Top*%
%FSLAX46Y46*%
G04 Gerber Fmt 4.6, Leading zero omitted, Abs format (unit mm)*
G04 Created by KiCad (PCBNEW 4.0.6) date 10/03/17 21:34:55*
%MOMM*%
%LPD*%
G01*
G04 APERTURE LIST*
%ADD10C,0.127000*%
%ADD11R,2.420000X0.920000*%
%ADD12R,0.720000X0.670000*%
%ADD13R,0.670000X0.720000*%
%ADD14R,1.113800X1.317000*%
%ADD15C,1.799600*%
%ADD16R,1.220000X0.620000*%
%ADD17R,0.420000X0.820000*%
%ADD18R,0.620000X1.220000*%
%ADD19R,0.920000X2.420000*%
%ADD20R,1.620000X0.820000*%
%ADD21R,2.167900X1.418600*%
%ADD22R,0.519440X2.119640*%
%ADD23R,0.519440X1.118880*%
G04 APERTURE END LIST*
D10*
D11*
X209931000Y-78407000D03*
X209931000Y-81407000D03*
D12*
X189369000Y-77597000D03*
X190869000Y-77597000D03*
D11*
X188214000Y-63270000D03*
X188214000Y-66270000D03*
D13*
X187579000Y-77355000D03*
X187579000Y-78855000D03*
X197739000Y-69989000D03*
X197739000Y-71489000D03*
D14*
X196621400Y-63119000D03*
X193522600Y-63119000D03*
D15*
X180340000Y-66040000D03*
X180340000Y-63500000D03*
D16*
X184404000Y-63312000D03*
X184404000Y-65212000D03*
X184404000Y-66487000D03*
X184404000Y-68387000D03*
D17*
X184519000Y-81915000D03*
X183019000Y-81915000D03*
X183146000Y-70866000D03*
X184646000Y-70866000D03*
D16*
X185674000Y-77028000D03*
X185674000Y-78928000D03*
D18*
X186502000Y-71501000D03*
X188402000Y-71501000D03*
D19*
X190918000Y-74295000D03*
X186018000Y-74295000D03*
D20*
X197739000Y-68506000D03*
X197739000Y-65606000D03*
D21*
X200400920Y-63454280D03*
X200400920Y-65453260D03*
X200400920Y-67454780D03*
X200400920Y-69451220D03*
X200400920Y-71452740D03*
X200400920Y-73451720D03*
X212349080Y-73451720D03*
X212349080Y-71452740D03*
X212349080Y-69451220D03*
X212349080Y-67454780D03*
X212349080Y-65453260D03*
X212349080Y-63454280D03*
D15*
X180340000Y-71120000D03*
X180340000Y-73660000D03*
X213360000Y-81280000D03*
X213360000Y-78740000D03*
D22*
X192659000Y-78925420D03*
X193929000Y-78925420D03*
X195199000Y-78925420D03*
X196469000Y-78925420D03*
X196469000Y-73728580D03*
X195199000Y-73728580D03*
X193929000Y-73728580D03*
X192659000Y-73728580D03*
D23*
X191389000Y-71247000D03*
X192659000Y-71247000D03*
X193929000Y-71247000D03*
X195199000Y-71247000D03*
X195199000Y-65648840D03*
X193929000Y-65648840D03*
X192659000Y-65648840D03*
X191389000Y-65648840D03*
M02*
