<?xml version="1.0" standalone="no"?>
 <!DOCTYPE svg PUBLIC "-//W3C//DTD SVG 1.1//EN" 
 "http://www.w3.org/Graphics/SVG/1.1/DTD/svg11.dtd"> 
<svg xmlns="http://www.w3.org/2000/svg" version="1.1" 
    width="4.2291cm" height="2.42824cm" viewBox="0 0 16650 9560 ">
<title>SVG Picture created as HVPS_SMD-B.Mask.svg date 2017/11/09 19:49:47 </title>
  <desc>Picture generated by PCBNEW </desc>
<g style="fill:#000000; fill-opacity:1;stroke:#000000; stroke-opacity:1;
stroke-linecap:round; stroke-linejoin:round; "
 transform="translate(0 0) scale(1 1)">
</g>
<g style="fill:#848400; fill-opacity:0.0; 
stroke:#848400; stroke-width:-0.000393701; stroke-opacity:1; 
stroke-linecap:round; stroke-linejoin:round;">
</g>
<g style="fill:#848400; fill-opacity:0.0; 
stroke:#848400; stroke-width:100; stroke-opacity:1; 
stroke-linecap:round; stroke-linejoin:round;">
<path d="M10680 7269
L10680 7584
" />
<path d="M10680 7314
L10658 7291
L10613 7269
L10545 7269
L10500 7291
L10478 7336
L10478 7584
" />
<path d="M10253 7584
L10253 7269
" />
<path d="M10253 7111
L10275 7134
L10253 7156
L10230 7134
L10253 7111
L10253 7156
" />
<path d="M10073 7584
L9825 7269
" />
<path d="M10073 7269
L9825 7584
" />
<path d="M9645 7584
L9645 7269
" />
<path d="M9645 7111
L9668 7134
L9645 7156
L9623 7134
L9645 7111
L9645 7156
" />
<path d="M9240 7561
L9285 7584
L9375 7584
L9420 7561
L9443 7516
L9443 7336
L9420 7291
L9375 7269
L9285 7269
L9240 7291
L9218 7336
L9218 7381
L9443 7426
" />
<path d="M9038 7561
L8993 7584
L8903 7584
L8858 7561
L8835 7516
L8835 7494
L8858 7449
L8903 7426
L8970 7426
L9015 7404
L9038 7359
L9038 7336
L9015 7291
L8970 7269
L8903 7269
L8858 7291
" />
<path d="M8633 7539
L8610 7561
L8633 7584
L8655 7561
L8633 7539
L8633 7584
" />
<path d="M8205 7269
L8205 7584
" />
<path d="M8408 7269
L8408 7516
L8385 7561
L8340 7584
L8273 7584
L8228 7561
L8205 7539
" />
<path d="M8003 7561
L7958 7584
L7868 7584
L7823 7561
L7800 7516
L7800 7494
L7823 7449
L7868 7426
L7935 7426
L7980 7404
L8003 7359
L8003 7336
L7980 7291
L7935 7269
L7868 7269
L7823 7291
" />
<path d="M10680 8393
L10680 7920
" />
<path d="M10478 8393
L10478 8145
L10500 8100
L10545 8078
L10613 8078
L10658 8100
L10680 8123
" />
<path d="M10298 8078
L10185 8393
L10073 8078
" />
<path d="M9893 8078
L9893 8550
" />
<path d="M9893 8100
L9848 8078
L9758 8078
L9713 8100
L9690 8123
L9668 8168
L9668 8303
L9690 8348
L9713 8370
L9758 8393
L9848 8393
L9893 8370
" />
<path d="M9488 8370
L9443 8393
L9353 8393
L9308 8370
L9285 8325
L9285 8303
L9308 8258
L9353 8235
L9420 8235
L9465 8213
L9488 8168
L9488 8145
L9465 8100
L9420 8078
L9353 8078
L9308 8100
" />
<path d="M8768 8078
L8655 8393
L8543 8078
" />
<path d="M8273 7920
L8228 7920
L8183 7943
L8160 7965
L8138 8010
L8115 8100
L8115 8213
L8138 8303
L8160 8348
L8183 8370
L8228 8393
L8273 8393
L8318 8370
L8340 8348
L8363 8303
L8385 8213
L8385 8100
L8363 8010
L8340 7965
L8318 7943
L8273 7920
" />
<path d="M7913 8348
L7890 8370
L7913 8393
L7935 8370
L7913 8348
L7913 8393
" />
<path d="M7440 8393
L7710 8393
" />
<path d="M7575 8393
L7575 7920
L7620 7988
L7665 8033
L7710 8055
" />
</g>
<g style="fill:#C2C200; fill-opacity:0.0; 
stroke:#C2C200; stroke-width:100; stroke-opacity:1; 
stroke-linecap:round; stroke-linejoin:round;">
</g>
<g style="fill:#C2C200; fill-opacity:0.0; 
stroke:#C2C200; stroke-width:50; stroke-opacity:1; 
stroke-linecap:round; stroke-linejoin:round;">
<path d="M15193 25
L693 25
" />
<path d="M15193 9025
L15193 25
" />
<path d="M693 9025
L15193 9025
" />
<path d="M693 25
L693 9025
" />
</g>
<g style="fill:#848400; fill-opacity:0.0; 
stroke:#848400; stroke-width:50; stroke-opacity:1; 
stroke-linecap:round; stroke-linejoin:round;">
</g>
<g style="fill:#848400; fill-opacity:1.0; 
stroke:#848400; stroke-width:3.93701; stroke-opacity:1; 
stroke-linecap:round; stroke-linejoin:round;">
<polyline style="fill-rule:evenodd;"
points="11236,5889
11229,5890
11227,5890
11211,5895
11199,5903
11193,5908
11186,5916
11182,5924
11180,5933
11180,5941
11180,5949
11181,5955
11184,5961
11187,5965
11194,5974
11204,5979
11213,5981
11223,5979
11228,5976
11232,5973
11235,5969
11236,5963
11236,5960
11236,5954
11235,5950
11233,5948
11232,5947
11227,5946
11223,5947
11219,5948
11218,5951
11219,5954
11219,5959
11217,5961
11214,5960
11210,5957
11206,5953
11202,5946
11202,5945
11200,5940
11200,5936
11202,5930
11208,5918
11217,5909
11223,5906
11228,5903
11234,5901
11241,5901
11248,5901
11258,5901
11265,5902
11268,5903
11271,5905
11273,5906
11277,5907
11283,5911
11289,5917
11294,5924
11299,5930
11299,5931
11302,5938
11305,5944
11307,5949
11308,5958
11308,5970
11308,5975
11308,5986
11308,5994
11307,6000
11305,6005
11303,6011
11300,6017
11290,6034
11278,6048
11263,6060
11244,6069
11222,6077
11207,6081
11196,6082
11181,6083
11165,6082
11148,6080
11131,6078
11116,6075
11108,6072
11100,6069
11094,6066
11090,6063
11088,6061
11090,6060
11091,6060
11095,6059
11102,6055
11109,6050
11118,6045
11126,6039
11132,6033
11137,6028
11137,6028
11145,6018
11151,6008
11155,5999
11158,5987
11160,5973
11161,5971
11161,5957
11158,5943
11153,5930
11147,5918
11141,5910
11130,5902
11118,5897
11105,5895
11091,5896
11079,5900
11069,5907
11063,5914
11060,5923
11059,5931
11060,5938
11062,5943
11066,5948
11066,5948
11072,5954
11078,5956
11080,5956
11087,5954
11092,5949
11095,5942
11095,5941
11093,5935
11090,5933
11086,5935
11084,5937
11081,5940
11078,5940
11077,5939
11075,5935
11074,5928
11075,5921
11077,5917
11081,5911
11085,5908
11092,5906
11102,5905
11111,5906
11117,5908
11125,5913
11133,5920
11138,5928
11139,5929
11141,5934
11142,5941
11142,5949
11142,5957
11142,5963
11141,5967
11140,5967
11139,5970
11138,5974
11138,5977
11136,5979
11134,5980
11134,5981
11133,5984
11130,5989
11125,5995
11120,6001
11118,6003
11111,6009
11102,6015
11091,6021
11079,6027
11069,6032
11065,6033
11040,6039
11017,6041
10995,6040
10973,6035
10951,6026
10935,6017
10921,6009
10909,6003
10898,5999
10887,5996
10876,5994
10863,5993
10849,5993
10837,5994
10826,5994
10816,5995
10809,5995
10808,5995
10800,5997
10790,5999
10785,5999
10777,6001
10768,6003
10764,6004
10753,6006
10746,6008
10741,6009
10737,6010
10734,6011
10733,6012
10719,6017
10706,6025
10695,6033
10687,6043
10682,6052
10680,6061
10679,6068
10677,6078
10673,6088
10672,6092
10668,6105
10666,6119
10665,6125
10666,6133
10665,6138
10665,6140
10663,6141
10661,6140
10658,6140
10658,6141
10661,6145
10662,6146
10666,6150
10666,6153
10666,6156
10663,6161
10658,6166
10655,6168
10649,6173
10647,6178
10649,6184
10654,6190
10659,6195
10661,6197
10660,6200
10660,6200
10658,6204
10657,6210
10658,6218
10659,6225
10659,6226
10665,6239
10668,6250
10669,6258
10670,6261
10671,6267
10675,6272
10678,6273
10681,6274
10686,6275
10693,6275
10703,6275
10711,6275
10723,6275
10732,6275
10738,6275
10742,6276
10746,6277
10748,6279
10753,6282
10755,6285
10755,6286
10756,6289
10757,6289
10759,6291
10761,6296
10763,6304
10765,6312
10766,6321
10767,6330
10768,6335
10767,6345
10765,6358
10763,6371
10761,6381
10756,6401
10751,6417
10747,6428
10747,6430
10745,6435
10743,6441
10742,6441
10739,6450
10735,6460
10729,6473
10727,6476
10724,6485
10721,6495
10721,6504
10722,6511
10724,6514
10728,6518
10734,6522
10740,6526
10745,6530
10749,6532
10750,6533
10753,6534
10758,6538
10762,6543
10766,6548
10767,6550
10768,6558
10766,6568
10765,6569
10762,6578
10757,6588
10752,6598
10747,6609
10742,6619
10738,6627
10735,6633
10733,6637
10733,6637
10730,6640
10730,6641
10728,6644
10724,6649
10718,6655
10710,6661
10702,6668
10694,6674
10693,6675
10686,6680
10678,6686
10669,6693
10659,6701
10650,6708
10641,6715
10634,6721
10629,6725
10628,6727
10626,6728
10621,6732
10619,6734
10613,6738
10608,6742
10607,6743
10604,6746
10599,6750
10591,6756
10583,6762
10574,6768
10566,6775
10559,6780
10557,6781
10551,6785
10547,6789
10546,6790
10541,6793
10538,6794
10535,6796
10534,6797
10532,6799
10528,6801
10527,6802
10522,6804
10520,6806
10520,6806
10518,6807
10513,6810
10506,6813
10505,6813
10499,6815
10493,6817
10488,6818
10481,6818
10471,6818
10464,6818
10451,6817
10435,6816
10420,6814
10410,6813
10398,6812
10389,6811
10382,6810
10376,6811
10369,6812
10367,6812
10358,6814
10354,6815
10351,6817
10351,6819
10351,6821
10354,6822
10358,6822
10364,6822
10373,6823
10383,6824
10393,6825
10401,6827
10405,6829
10407,6830
10406,6831
10404,6832
10399,6833
10390,6834
10384,6835
10373,6837
10364,6838
10356,6841
10348,6844
10347,6845
10340,6848
10334,6852
10329,6856
10326,6859
10326,6860
10328,6861
10332,6861
10338,6861
10344,6860
10348,6858
10350,6858
10353,6856
10356,6856
10361,6855
10363,6854
10366,6852
10371,6852
10375,6853
10375,6854
10373,6855
10362,6859
10355,6862
10349,6865
10345,6867
10342,6870
10338,6874
10336,6877
10336,6877
10338,6879
10343,6878
10350,6876
10360,6873
10363,6871
10372,6867
10378,6865
10382,6865
10382,6867
10379,6870
10378,6870
10374,6873
10370,6874
10368,6876
10366,6880
10365,6882
10367,6883
10371,6883
10377,6881
10384,6879
10390,6876
10394,6873
10395,6872
10397,6870
10403,6868
10410,6865
10417,6862
10418,6862
10424,6861
10432,6860
10437,6860
10444,6860
10448,6861
10450,6863
10451,6866
10453,6871
10452,6876
10447,6881
10439,6887
10436,6889
10428,6895
10422,6899
10419,6903
10417,6906
10416,6910
10416,6915
10417,6916
10418,6916
10425,6916
10430,6913
10434,6910
10441,6906
10449,6902
10459,6898
10468,6895
10469,6894
10483,6889
10495,6883
10505,6876
10513,6868
10516,6864
10522,6857
10528,6851
10534,6846
10535,6845
10539,6842
10542,6839
10543,6839
10545,6837
10551,6833
10559,6829
10568,6823
10578,6818
10588,6812
10598,6807
10599,6807
10617,6797
10634,6789
10649,6781
10659,6775
10666,6771
10671,6768
10674,6767
10677,6765
10678,6764
10680,6762
10680,6762
10683,6761
10688,6758
10696,6754
10705,6749
10714,6743
10716,6742
10719,6740
10725,6737
10729,6734
10735,6730
10739,6728
10740,6727
10743,6725
10747,6721
10750,6719
10757,6714
10762,6710
10767,6706
10772,6701
10779,6694
10781,6692
10788,6684
10795,6676
10801,6668
10802,6666
10806,6660
10810,6655
10813,6654
10815,6655
10815,6655
10817,6658
10820,6662
10821,6663
10824,6667
10826,6670
10826,6670
10827,6673
10830,6676
10834,6681
10839,6690
10844,6701
10849,6713
10853,6725
10856,6736
10857,6741
10861,6759
10864,6775
10865,6788
10866,6801
10867,6815
10867,6831
10867,6842
10866,6855
10866,6868
10865,6878
10865,6886
10864,6891
10864,6891
10864,6895
10864,6903
10863,6913
10863,6926
10862,6940
10862,6956
10862,6956
10862,6974
10862,6990
10862,7002
10862,7014
10863,7025
10864,7037
10865,7049
10865,7054
10868,7077
10870,7096
10873,7112
10875,7127
10877,7139
10879,7151
10881,7162
10883,7168
10885,7178
10888,7187
10889,7195
10890,7198
10891,7203
10892,7207
10893,7207
10894,7210
10895,7213
10895,7216
10897,7223
10899,7232
10902,7238
10905,7248
10908,7257
10910,7265
10911,7268
10913,7274
10915,7279
10915,7280
10917,7283
10919,7288
10919,7290
10922,7298
10925,7305
10925,7306
10928,7312
10930,7318
10930,7318
10933,7324
10934,7327
10936,7331
10936,7333
10937,7335
10940,7341
10943,7349
10948,7360
10953,7371
10959,7383
10965,7395
10971,7407
10976,7418
10980,7427
10984,7433
10986,7437
10986,7437
10988,7439
10990,7444
10992,7447
10997,7456
11004,7467
11012,7479
11020,7492
11028,7504
11035,7515
11041,7523
11044,7527
11046,7529
11050,7535
11056,7542
11062,7550
11090,7584
11122,7617
11157,7649
11166,7657
11173,7662
11177,7666
11180,7668
11180,7668
11182,7670
11187,7673
11193,7678
11199,7682
11206,7688
11213,7693
11218,7697
11220,7698
11224,7702
11229,7705
11235,7709
11239,7713
11243,7715
11245,7716
11248,7717
11252,7721
11256,7723
11261,7728
11264,7730
11266,7731
11268,7732
11273,7734
11279,7738
11285,7742
11290,7745
11292,7747
11293,7747
11295,7749
11299,7751
11302,7754
11309,7757
11317,7762
11327,7768
11331,7771
11340,7776
11348,7781
11354,7785
11358,7787
11358,7787
11360,7788
11365,7791
11371,7794
11372,7795
11383,7801
11394,7807
11406,7814
11415,7819
11422,7822
11427,7825
11430,7826
11430,7827
11432,7828
11437,7831
11444,7835
11451,7838
11470,7848
11488,7857
11503,7865
11516,7871
11526,7877
11533,7880
11537,7882
11537,7882
11541,7884
11547,7887
11555,7891
11560,7894
11589,7909
11615,7922
11638,7934
11657,7946
11666,7951
11672,7954
11675,7955
11678,7957
11683,7961
11691,7966
11700,7971
11710,7978
11719,7984
11728,7991
11736,7996
11742,8000
11746,8003
11747,8003
11749,8005
11753,8009
11758,8013
11782,8034
11802,8057
11819,8080
11831,8105
11840,8131
11845,8157
11846,8162
11846,8170
11846,8175
11845,8178
11843,8180
11842,8181
11837,8184
11830,8186
11830,8186
11814,8188
11801,8192
11791,8195
11783,8197
11773,8201
11763,8204
11755,8206
11748,8208
11744,8210
11744,8210
11740,8211
11733,8214
11725,8217
11724,8217
11716,8220
11710,8223
11706,8225
11706,8225
11702,8226
11701,8227
11698,8227
11692,8230
11684,8234
11674,8238
11663,8243
11653,8248
11644,8253
11637,8256
11628,8262
11618,8267
11609,8273
11601,8278
11596,8281
11596,8281
11575,8296
11555,8313
11534,8331
11516,8349
11500,8367
11495,8372
11490,8379
11485,8385
11482,8388
11482,8389
11480,8391
11480,8391
11479,8394
11476,8398
11473,8402
11468,8408
11463,8417
11457,8426
11452,8435
11448,8443
11445,8449
11444,8449
11442,8454
11440,8456
11440,8456
11438,8457
11438,8459
11437,8462
11435,8467
11433,8471
11430,8477
11428,8482
11428,8484
11427,8487
11426,8487
11425,8490
11423,8495
11420,8503
11417,8512
11413,8521
11410,8531
11408,8539
11408,8541
11406,8549
11404,8555
11403,8559
11401,8564
11400,8570
11400,8570
11399,8575
11398,8583
11396,8593
11395,8603
11393,8613
11392,8623
11391,8635
11391,8648
11390,8665
11390,8676
11390,8690
11390,8702
11391,8713
11391,8721
11391,8726
11392,8727
11394,8726
11399,8724
11407,8719
11416,8714
11433,8703
11450,8693
11467,8684
11487,8674
11508,8663
11522,8657
11536,8651
11547,8646
11555,8642
11561,8640
11562,8639
11564,8638
11569,8636
11576,8633
11579,8632
11587,8628
11594,8625
11599,8623
11600,8623
11604,8621
11610,8618
11614,8616
11627,8611
11636,8607
11642,8604
11644,8604
11650,8601
11659,8597
11669,8592
11680,8586
11689,8581
11697,8577
11701,8575
11707,8570
11715,8564
11723,8557
11731,8549
11737,8542
11743,8535
11746,8531
11747,8529
11748,8526
11748,8526
11750,8524
11754,8520
11758,8514
11761,8508
11764,8503
11765,8500
11765,8500
11767,8497
11767,8497
11769,8495
11772,8490
11773,8487
11776,8482
11778,8480
11778,8480
11778,8482
11778,8489
11778,8497
11779,8508
11779,8519
11779,8539
11781,8556
11783,8571
11786,8584
11790,8597
11796,8610
11804,8625
11806,8629
11810,8635
11815,8643
11822,8654
11829,8665
11836,8677
11842,8687
11848,8696
11851,8702
11855,8708
11858,8713
11859,8715
11859,8715
11860,8718
11861,8719
11864,8723
11868,8728
11872,8734
11875,8740
11877,8744
11878,8745
11879,8748
11880,8748
11881,8750
11884,8754
11888,8761
11892,8767
11895,8772
11897,8776
11897,8777
11898,8779
11898,8779
11900,8780
11902,8783
11904,8787
11907,8793
11911,8802
11916,8811
11917,8814
11923,8825
11927,8834
11930,8841
11933,8846
11935,8852
11937,8855
11939,8861
11940,8865
11942,8869
11944,8876
11946,8881
11949,8890
11951,8896
11954,8899
11956,8898
11960,8895
11961,8894
11965,8888
11969,8884
11975,8876
11979,8871
11983,8866
11987,8860
11991,8854
11994,8850
11995,8848
11996,8845
11996,8845
11999,8843
12003,8837
12007,8829
12013,8819
12019,8808
12025,8796
12031,8784
12036,8773
12039,8764
12042,8758
12044,8753
12045,8751
12046,8746
12047,8743
12048,8739
12049,8738
12050,8735
12051,8732
12052,8727
12053,8726
12054,8723
12056,8718
12056,8718
12057,8712
12059,8704
12060,8700
12062,8693
12064,8686
12066,8678
12068,8668
12070,8655
12071,8648
12072,8638
12072,8626
12072,8611
12073,8596
12073,8579
12072,8563
12072,8549
12072,8535
12071,8525
12070,8517
12070,8515
12068,8506
12066,8498
12066,8493
12064,8486
12061,8477
12060,8472
12058,8465
12056,8457
12056,8454
12054,8449
12053,8446
12053,8446
12051,8443
12051,8440
12050,8436
12049,8434
12047,8431
12047,8429
12046,8423
12045,8421
12041,8413
12038,8406
12037,8400
12036,8398
12035,8396
12034,8395
12032,8394
12032,8393
12031,8389
12028,8382
12024,8373
12019,8362
12013,8350
12006,8338
12002,8331
11998,8323
11993,8316
11991,8311
11990,8311
11988,8307
11984,8301
11979,8294
11973,8285
11968,8277
11962,8270
11958,8264
11956,8260
11955,8260
11953,8258
11950,8253
11948,8251
11939,8240
11930,8230
11924,8223
11917,8215
11913,8209
11910,8203
11909,8196
11909,8189
11909,8177
11907,8163
11905,8149
11903,8135
11900,8125
11899,8121
11897,8117
11895,8110
11895,8109
11893,8103
11890,8096
11886,8088
11883,8080
11879,8073
11877,8068
11876,8066
11874,8064
11872,8060
11868,8054
11863,8046
11858,8039
11854,8032
11850,8028
11846,8023
11842,8018
11841,8016
11837,8011
11830,8005
11822,7996
11814,7988
11806,7980
11798,7973
11794,7969
11777,7954
11762,7942
11748,7931
11734,7921
11729,7917
11722,7912
11716,7908
11712,7905
11711,7904
11708,7902
11703,7898
11695,7893
11686,7888
11684,7886
11675,7880
11667,7875
11661,7871
11658,7869
11658,7868
11655,7866
11654,7866
11652,7865
11647,7862
11640,7858
11632,7852
11627,7850
11618,7844
11610,7839
11603,7835
11599,7833
11599,7833
11597,7831
11597,7831
11595,7829
11595,7829
11592,7828
11587,7825
11580,7821
11578,7819
11571,7815
11565,7812
11562,7810
11561,7810
11559,7808
11559,7808
11558,7806
11557,7806
11554,7805
11549,7802
11542,7798
11540,7796
11533,7792
11528,7789
11524,7787
11524,7787
11522,7785
11522,7785
11520,7783
11519,7783
11516,7782
11512,7779
11510,7778
11506,7774
11503,7773
11502,7772
11500,7771
11495,7768
11488,7764
11479,7758
11469,7751
11467,7750
11462,7747
11456,7742
11453,7740
11447,7737
11444,7734
11443,7733
11440,7731
11440,7731
11437,7729
11432,7726
11431,7725
11426,7721
11419,7716
11415,7713
11410,7710
11406,7707
11405,7706
11403,7704
11398,7700
11396,7698
11377,7683
11357,7665
11336,7644
11314,7620
11292,7595
11274,7572
11267,7564
11261,7557
11257,7552
11254,7549
11252,7545
11251,7542
11250,7539
11249,7539
11248,7537
11244,7533
11239,7526
11234,7518
11232,7516
11226,7507
11221,7500
11217,7494
11215,7492
11215,7492
11213,7489
11213,7489
11212,7486
11210,7481
11206,7476
11202,7469
11197,7459
11191,7448
11185,7436
11179,7424
11174,7412
11170,7403
11167,7395
11166,7392
11165,7388
11163,7386
11162,7383
11161,7380
11160,7375
11159,7373
11158,7371
11157,7367
11156,7363
11155,7361
11153,7358
11152,7355
11151,7351
11149,7344
11148,7338
11145,7328
11143,7319
11141,7310
11139,7301
11138,7290
11136,7277
11133,7261
11133,7260
11133,7253
11132,7246
11132,7238
11131,7228
11131,7217
11131,7203
11131,7187
11131,7167
11132,7144
11132,7142
11132,7111
11132,7084
11133,7061
11133,7041
11133,7024
11133,7009
11133,6997
11132,6986
11132,6978
11132,6970
11131,6964
11131,6959
11130,6957
11126,6929
11119,6903
11110,6878
11100,6855
11086,6831
11070,6808
11051,6784
11028,6758
11023,6754
11017,6747
11011,6739
11004,6731
10998,6723
10993,6716
10990,6711
10989,6710
10988,6707
10986,6706
10984,6704
10984,6703
10983,6700
10981,6695
10979,6689
10975,6681
10972,6675
10970,6669
10969,6664
10967,6657
10966,6647
10964,6638
10964,6632
10963,6623
10962,6612
10962,6599
10961,6586
10961,6573
10961,6560
10961,6549
10961,6540
10961,6533
10961,6530
10961,6530
10963,6530
10967,6533
10970,6535
10976,6540
10982,6545
10983,6546
10989,6551
10996,6558
11005,6566
11014,6575
11022,6583
11030,6591
11035,6597
11038,6601
11042,6607
11048,6617
11055,6631
11064,6648
11071,6664
11076,6673
11080,6682
11084,6688
11085,6690
11089,6697
11094,6705
11095,6708
11099,6715
11104,6723
11105,6726
11111,6736
11117,6747
11123,6760
11130,6772
11136,6784
11142,6796
11147,6806
11150,6813
11152,6819
11153,6820
11154,6824
11155,6826
11163,6847
11168,6869
11168,6892
11166,6910
11163,6926
11161,6944
11161,6962
11162,6979
11165,6993
11165,6994
11167,7001
11169,7007
11171,7009
11171,7009
11174,7008
11177,7004
11179,6998
11180,6989
11180,6985
11180,6976
11181,6970
11183,6968
11185,6968
11186,6968
11190,6971
11190,6974
11192,6976
11193,6977
11194,6978
11195,6980
11195,6985
11196,6986
11198,6990
11200,6998
11202,7008
11203,7019
11204,7028
11205,7042
11207,7053
11210,7061
11213,7066
11215,7069
11217,7069
11219,7067
11220,7065
11221,7062
11222,7057
11222,7050
11223,7040
11223,7028
11223,7013
11224,7003
11224,6996
11225,6993
11227,6995
11229,6999
11231,7008
11232,7013
11236,7027
11239,7040
11241,7048
11244,7056
11247,7065
11250,7068
11254,7074
11258,7077
11260,7075
11261,7069
11260,7060
11260,7053
11258,7043
11257,7034
11255,7027
11255,7026
11253,7018
11251,7009
11251,7007
11249,6999
11247,6992
11247,6991
11246,6985
11246,6982
11247,6982
11249,6983
11252,6987
11256,6995
11259,7004
11265,7019
11269,7030
11273,7039
11277,7044
11280,7047
11283,7047
11285,7047
11286,7045
11286,7041
11285,7033
11285,7033
11284,7023
11282,7012
11280,7004
11277,6994
11275,6987
11274,6983
11274,6981
11275,6981
11277,6982
11281,6986
11283,6990
11288,6996
11292,7000
11296,7002
11298,7002
11299,7001
11297,6993
11293,6983
11287,6970
11277,6955
11276,6952
11270,6943
11265,6936
11261,6930
11259,6926
11259,6926
11258,6923
11255,6917
11251,6911
11246,6903
11241,6897
11237,6891
11236,6891
11229,6881
11221,6868
11214,6852
11207,6833
11206,6830
11203,6820
11200,6811
11198,6805
11196,6801
11196,6801
11195,6796
11195,6793
11194,6789
11193,6788
11191,6785
11190,6783
11190,6779
11187,6773
11185,6767
11182,6760
11181,6754
11180,6751
11179,6746
11178,6744
11177,6740
11174,6734
11172,6726
11169,6716
11166,6707
11164,6699
11162,6693
11161,6690
11161,6690
11160,6686
11159,6683
11158,6680
11156,6673
11153,6665
11152,6661
11149,6653
11147,6646
11145,6641
11145,6640
11143,6637
11141,6632
11141,6630
11139,6625
11136,6618
11132,6610
11129,6602
11125,6595
11123,6591
11122,6589
11120,6587
11118,6582
11117,6582
11115,6579
11110,6573
11104,6565
11096,6557
11087,6548
11078,6538
11069,6529
11061,6520
11055,6514
11052,6510
11047,6505
11044,6501
11043,6500
11041,6497
11037,6493
11033,6488
11029,6482
11025,6478
11024,6477
11022,6474
11018,6470
11016,6467
11013,6462
11010,6459
11009,6458
11007,6456
11004,6451
11002,6448
10997,6443
10993,6438
10992,6436
10989,6432
10988,6429
10987,6427
10986,6427
10984,6425
10984,6425
10983,6422
10980,6417
10976,6410
10975,6408
10970,6401
10967,6396
10966,6392
10965,6392
10964,6390
10962,6385
10958,6380
10954,6373
10952,6369
10951,6366
10949,6364
10949,6364
10947,6362
10944,6357
10940,6351
10940,6351
10924,6331
10907,6314
10887,6301
10866,6291
10852,6287
10843,6284
10838,6280
10835,6274
10835,6273
10835,6268
10837,6264
10840,6262
10840,6262
10842,6263
10846,6267
10848,6268
10854,6273
10861,6278
10868,6282
10877,6286
10887,6288
10898,6290
10911,6290
10927,6289
10945,6288
10967,6284
10970,6284
10979,6283
10986,6282
10992,6281
10993,6281
10997,6282
11003,6287
11010,6294
11018,6302
11026,6312
11029,6317
11038,6328
11048,6340
11059,6353
11071,6364
11081,6373
11085,6376
11091,6380
11095,6384
11097,6385
11099,6387
11103,6390
11109,6394
11116,6398
11122,6402
11127,6405
11129,6406
11129,6406
11131,6407
11136,6409
11143,6412
11145,6413
11152,6416
11158,6419
11162,6420
11163,6420
11167,6421
11169,6422
11178,6426
11190,6429
11205,6432
11220,6434
11235,6435
11244,6435
11271,6433
11299,6428
11316,6422
11321,6421
11327,6418
11334,6414
11342,6411
11349,6407
11353,6405
11355,6404
11357,6402
11361,6399
11363,6397
11373,6389
11381,6381
11389,6371
11395,6363
11399,6355
11401,6350
11402,6345
11403,6344
11405,6340
11406,6334
11406,6325
11406,6315
11405,6304
11405,6294
11403,6286
11402,6282
11396,6268
11389,6256
11380,6248
11368,6241
11353,6235
11339,6233
11325,6234
11312,6238
11301,6246
11297,6249
11292,6254
11290,6258
11289,6263
11288,6270
11288,6271
11289,6283
11292,6291
11298,6298
11300,6300
11308,6303
11316,6303
11323,6300
11328,6298
11330,6295
11330,6290
11330,6288
11329,6283
11327,6280
11324,6280
11323,6280
11318,6280
11316,6283
11316,6284
11315,6288
11314,6289
11310,6287
11308,6282
11307,6273
11307,6266
11309,6261
11313,6257
11314,6255
11322,6249
11332,6246
11344,6246
11350,6246
11361,6250
11372,6257
11381,6268
11381,6269
11384,6275
11386,6280
11386,6286
11387,6294
11387,6297
11386,6307
11386,6314
11384,6320
11381,6327
11381,6328
11377,6334
11372,6341
11365,6349
11359,6355
11353,6361
11349,6364
11348,6364
11345,6365
11344,6366
11342,6368
11337,6371
11330,6374
11322,6377
11315,6379
11313,6380
11292,6385
11272,6386
11255,6385
11246,6384
11239,6382
11234,6381
11233,6381
11221,6376
11213,6372
11206,6368
11200,6364
11194,6359
11187,6353
11182,6346
11176,6338
11170,6329
11165,6319
11161,6310
11158,6303
11157,6299
11159,6295
11163,6289
11170,6282
11179,6275
11190,6267
11200,6259
11211,6252
11218,6248
11224,6245
11231,6241
11239,6237
11247,6233
11251,6231
11255,6229
11262,6227
11271,6224
11281,6221
11290,6219
11298,6217
11301,6216
11309,6215
11320,6214
11333,6214
11347,6214
11361,6214
11373,6215
11383,6216
11385,6216
11409,6222
11434,6231
11457,6243
11478,6257
11496,6272
11503,6279
11508,6285
11514,6293
11521,6303
11527,6312
11531,6319
11533,6321
11539,6337
11544,6356
11548,6374
11549,6390
11548,6398
11548,6408
11546,6417
11545,6425
11544,6431
11542,6434
11541,6437
11540,6439
11539,6444
11537,6449
11536,6451
11525,6468
11512,6482
11498,6492
11484,6499
11479,6501
11473,6502
11464,6502
11454,6502
11444,6502
11435,6501
11432,6501
11420,6496
11408,6489
11397,6479
11389,6469
11387,6463
11386,6454
11386,6444
11387,6434
11389,6426
11389,6426
11395,6418
11402,6412
11407,6409
11413,6409
11416,6411
11416,6416
11415,6419
11414,6424
11414,6428
11417,6431
11417,6431
11423,6434
11429,6434
11435,6430
11437,6429
11441,6425
11443,6421
11443,6416
11443,6411
11443,6404
11441,6399
11438,6394
11438,6394
11429,6387
11417,6383
11408,6383
11394,6385
11382,6390
11372,6400
11364,6413
11363,6414
11359,6425
11358,6438
11358,6451
11361,6464
11363,6469
11367,6475
11372,6482
11377,6489
11383,6494
11387,6498
11390,6500
11393,6501
11393,6501
11395,6503
11400,6506
11407,6509
11415,6512
11422,6515
11425,6516
11431,6518
11441,6518
11453,6519
11459,6519
11476,6518
11490,6516
11502,6513
11514,6508
11524,6502
11531,6497
11539,6490
11547,6483
11555,6474
11562,6466
11568,6459
11572,6453
11574,6450
11575,6448
11576,6447
11578,6446
11578,6443
11579,6440
11579,6439
11582,6436
11584,6431
11588,6423
11591,6415
11594,6407
11594,6405
11599,6380
11599,6355
11598,6340
11596,6328
11595,6319
11593,6312
11591,6306
11588,6300
11584,6292
11581,6285
11576,6275
11572,6267
11569,6262
11567,6258
11565,6255
11563,6253
11559,6248
11554,6242
11552,6240
11548,6235
11544,6231
11539,6226
11532,6220
11526,6214
11518,6208
11507,6200
11495,6192
11481,6183
11468,6176
11456,6169
11451,6167
11441,6162
11434,6157
11431,6155
11431,6154
11432,6152
11436,6150
11443,6147
11453,6145
11461,6143
11469,6141
11477,6139
11479,6139
11486,6137
11495,6135
11498,6135
11504,6134
11514,6132
11524,6130
11530,6129
11544,6128
11560,6126
11578,6126
11597,6125
11615,6126
11632,6127
11647,6128
11654,6130
11667,6132
11677,6134
11685,6136
11692,6137
11697,6139
11703,6141
11710,6143
11715,6144
11725,6148
11737,6152
11749,6158
11761,6164
11772,6169
11782,6175
11789,6179
11790,6180
11794,6183
11797,6185
11797,6185
11800,6186
11805,6191
11811,6197
11818,6204
11825,6212
11831,6220
11836,6227
11839,6232
11840,6235
11842,6237
11842,6237
11844,6239
11847,6244
11850,6251
11853,6258
11857,6265
11859,6270
11859,6273
11860,6277
11861,6278
11863,6281
11865,6287
11867,6295
11870,6304
11871,6312
11873,6320
11875,6329
11876,6333
11877,6341
11877,6352
11877,6364
11877,6377
11876,6390
11875,6400
11874,6403
11871,6414
11867,6427
11861,6440
11856,6452
11851,6460
11847,6466
11841,6473
11834,6481
11828,6488
11822,6494
11817,6498
11814,6500
11814,6500
11811,6501
11811,6501
11809,6503
11805,6506
11798,6509
11790,6512
11783,6516
11776,6518
11772,6519
11766,6520
11758,6521
11750,6522
11732,6521
11714,6518
11696,6512
11679,6503
11665,6492
11653,6480
11647,6470
11645,6464
11643,6455
11643,6445
11643,6435
11644,6426
11645,6419
11647,6415
11649,6412
11649,6411
11650,6406
11654,6399
11660,6393
11666,6388
11668,6387
11674,6385
11679,6384
11684,6385
11684,6385
11689,6388
11690,6392
11689,6395
11686,6396
11683,6398
11682,6403
11682,6405
11683,6411
11686,6415
11689,6417
11695,6419
11702,6420
11710,6418
11717,6413
11723,6406
11727,6398
11728,6391
11726,6381
11721,6371
11713,6362
11704,6355
11699,6352
11690,6350
11679,6349
11668,6349
11657,6351
11648,6353
11641,6358
11632,6364
11624,6372
11616,6381
11612,6386
11606,6398
11603,6412
11601,6427
11601,6443
11604,6457
11609,6470
11612,6475
11614,6479
11615,6482
11615,6482
11617,6485
11621,6489
11627,6495
11634,6502
11641,6508
11649,6515
11655,6519
11658,6521
11673,6530
11688,6536
11695,6539
11701,6541
11709,6543
11711,6544
11718,6545
11727,6546
11739,6546
11747,6546
11767,6546
11784,6544
11799,6540
11812,6535
11816,6533
11818,6533
11821,6532
11827,6528
11835,6523
11844,6517
11853,6510
11862,6503
11870,6496
11875,6491
11883,6482
11891,6474
11898,6465
11904,6457
11909,6451
11911,6447
11911,6446
11912,6443
11913,6443
11915,6441
11917,6436
11920,6431
11924,6424
11926,6419
11928,6416
11932,6407
11936,6395
11936,6394
11938,6388
11940,6383
11941,6382
11944,6371
11946,6357
11948,6342
11950,6325
11950,6308
11950,6292
11949,6278
11947,6266
11945,6259
11943,6254
11941,6248
11940,6245
11937,6235
11933,6225
11928,6213
11926,6211
11923,6204
11918,6196
11913,6188
11908,6180
11904,6174
11902,6171
11899,6168
11896,6163
11896,6163
11889,6155
11880,6145
11870,6134
11858,6122
11847,6111
11836,6101
11825,6093
11816,6086
11809,6081
11808,6080
11804,6078
11803,6077
11801,6075
11797,6072
11796,6071
11791,6068
11788,6066
11788,6066
11787,6064
11786,6064
11783,6063
11778,6060
11778,6060
11774,6057
11767,6054
11758,6049
11748,6044
11738,6039
11728,6034
11720,6031
11719,6030
11712,6027
11708,6025
11707,6024
11701,6023
11699,6022
11695,6022
11694,6021
11691,6019
11688,6018
11683,6017
11676,6015
11671,6013
11647,6008
11620,6003
11591,6000
11562,5998
11532,5997
11504,5998
11477,6000
11456,6004
11447,6005
11438,6007
11434,6008
11416,6012
11395,6018
11372,6027
11357,6033
11349,6036
11343,6038
11339,6040
11338,6040
11337,6040
11336,6039
11336,6037
11337,6032
11338,6025
11339,6018
11342,5999
11341,5980
11337,5961
11330,5943
11321,5927
11309,5913
11296,5902
11281,5893
11271,5890
11264,5889
11255,5889
11245,5889
11236,5889
" /> 
</g>
<g style="fill:#840000; fill-opacity:1.0; 
stroke:#840000; stroke-width:3.93701; stroke-opacity:1; 
stroke-linecap:round; stroke-linejoin:round;">
</g>
<g style="fill:#840000; fill-opacity:1.0; 
stroke:#840000; stroke-width:0; stroke-opacity:1; 
stroke-linecap:round; stroke-linejoin:round;">
<circle cx="1193" cy="2025" r="389.685" /> 
</g>
<g style="fill:#840000; fill-opacity:1.0; 
stroke:#840000; stroke-width:39.3701; stroke-opacity:1; 
stroke-linecap:round; stroke-linejoin:round;">
</g>
<g style="fill:#840000; fill-opacity:1.0; 
stroke:#840000; stroke-width:0; stroke-opacity:1; 
stroke-linecap:round; stroke-linejoin:round;">
<circle cx="1193" cy="1025" r="389.685" /> 
</g>
<g style="fill:#840000; fill-opacity:1.0; 
stroke:#840000; stroke-width:39.3701; stroke-opacity:1; 
stroke-linecap:round; stroke-linejoin:round;">
</g>
<g style="fill:#840000; fill-opacity:1.0; 
stroke:#840000; stroke-width:0; stroke-opacity:1; 
stroke-linecap:round; stroke-linejoin:round;">
<circle cx="1193" cy="4025" r="389.685" /> 
</g>
<g style="fill:#840000; fill-opacity:1.0; 
stroke:#840000; stroke-width:39.3701; stroke-opacity:1; 
stroke-linecap:round; stroke-linejoin:round;">
</g>
<g style="fill:#840000; fill-opacity:1.0; 
stroke:#840000; stroke-width:0; stroke-opacity:1; 
stroke-linecap:round; stroke-linejoin:round;">
<circle cx="1193" cy="5025" r="389.685" /> 
</g>
<g style="fill:#840000; fill-opacity:1.0; 
stroke:#840000; stroke-width:39.3701; stroke-opacity:1; 
stroke-linecap:round; stroke-linejoin:round;">
</g>
<g style="fill:#840000; fill-opacity:1.0; 
stroke:#840000; stroke-width:0; stroke-opacity:1; 
stroke-linecap:round; stroke-linejoin:round;">
<circle cx="14193" cy="8025" r="389.685" /> 
</g>
<g style="fill:#840000; fill-opacity:1.0; 
stroke:#840000; stroke-width:39.3701; stroke-opacity:1; 
stroke-linecap:round; stroke-linejoin:round;">
</g>
<g style="fill:#840000; fill-opacity:1.0; 
stroke:#840000; stroke-width:0; stroke-opacity:1; 
stroke-linecap:round; stroke-linejoin:round;">
<circle cx="14193" cy="7025" r="389.685" /> 
</g>
<g style="fill:#840000; fill-opacity:1.0; 
stroke:#840000; stroke-width:39.3701; stroke-opacity:1; 
stroke-linecap:round; stroke-linejoin:round;">
</g> 
</svg>
